<?xml version="1.0" standalone="no"?>
<!DOCTYPE svg PUBLIC "-//W3C//DTD SVG 20010904//EN"
 "http://www.w3.org/TR/2001/REC-SVG-20010904/DTD/svg10.dtd">
<svg version="1.0" xmlns="http://www.w3.org/2000/svg"
 width="111.000000pt" height="111.000000pt" viewBox="0 0 111.000000 111.000000"
 preserveAspectRatio="xMidYMid meet">
<metadata>
Created by potrace 1.14, written by Peter Selinger 2001-2017
</metadata>
<g transform="translate(0.000000,111.000000) scale(0.100000,-0.100000)"
fill="#000000" stroke="none">
<path d="M531 1096 c-15 -18 -4 -46 18 -46 27 0 42 20 30 42 -12 21 -32 23
-48 4z"/>
<path d="M427 1018 c-14 -12 -11 -22 36 -99 66 -109 74 -118 96 -112 17 4 131
179 131 200 0 19 -38 21 -89 6 -44 -12 -56 -12 -102 1 -63 19 -52 18 -72 4z
m193 -55 c0 -8 -62 -98 -67 -96 -6 2 -63 85 -63 93 0 3 29 5 65 5 36 0 65 -1
65 -2z"/>
<path d="M309 973 c-8 -2 -25 -24 -37 -49 -19 -38 -78 -90 -122 -106 -5 -2
-10 -12 -12 -23 -3 -18 9 -23 102 -47 58 -14 110 -27 117 -27 30 -2 32 35 7
139 -14 58 -28 107 -32 111 -4 3 -14 4 -23 2z m10 -110 c26 -100 26 -95 -5
-87 -16 3 -47 10 -68 16 l-40 10 37 21 c20 11 41 33 48 49 6 15 13 28 15 28 2
0 8 -17 13 -37z"/>
<path d="M767 963 c-2 -5 -15 -54 -27 -111 -32 -141 -31 -143 118 -107 96 23
110 29 109 46 -1 12 -20 30 -52 48 -36 21 -58 43 -80 80 -27 46 -56 65 -68 44z
m52 -98 c11 -19 32 -40 46 -45 14 -5 25 -13 25 -18 0 -8 -111 -35 -118 -28 -4
4 19 126 23 126 2 0 12 -16 24 -35z"/>
<path d="M166 947 c-23 -17 -11 -47 19 -47 27 0 36 17 23 43 -10 20 -18 21
-42 4z"/>
<path d="M907 948 c-21 -11 -22 -31 -3 -47 20 -16 46 -3 46 24 0 27 -19 37
-43 23z"/>
<path d="M91 686 c-9 -11 -8 -27 4 -69 14 -50 14 -61 1 -112 -16 -64 -12 -89
15 -82 10 3 57 29 104 58 73 46 85 58 83 78 -2 13 -12 29 -23 35 -11 6 -38 23
-60 37 -105 67 -112 70 -124 55z m122 -104 l37 -25 -49 -33 c-28 -19 -53 -34
-56 -34 -4 0 -3 19 0 43 4 23 2 54 -4 70 -10 26 -10 27 12 16 12 -7 39 -23 60
-37z"/>
<path d="M893 632 c-66 -41 -92 -63 -93 -77 0 -28 199 -153 211 -133 12 18 11
28 -5 82 -13 41 -12 54 1 101 16 56 13 85 -9 85 -7 -1 -54 -26 -105 -58z m65
-48 c-6 -24 -6 -45 1 -66 6 -17 10 -32 9 -34 -5 -4 -107 61 -108 68 0 8 89 67
102 68 3 0 2 -16 -4 -36z"/>
<path d="M12 578 c-17 -17 -15 -36 7 -47 25 -14 50 13 35 37 -14 21 -27 25
-42 10z"/>
<path d="M1049 568 c-8 -16 -7 -24 4 -36 21 -20 47 -8 47 22 0 32 -36 42 -51
14z"/>
<path d="M255 369 c-44 -11 -90 -22 -102 -24 -13 -3 -23 -10 -23 -16 0 -12 35
-45 80 -73 19 -11 45 -43 59 -69 18 -33 32 -47 47 -47 19 0 24 12 46 113 33
150 33 150 -107 116z m81 -46 c-3 -10 -10 -40 -17 -66 l-12 -49 -20 36 c-11
19 -33 40 -49 47 -35 15 -27 24 32 37 67 15 72 14 66 -5z"/>
<path d="M729 375 c-14 -14 -13 -26 9 -123 34 -141 48 -150 96 -62 20 36 40
56 76 76 42 23 72 58 58 68 -3 3 -214 56 -221 56 -1 0 -10 -7 -18 -15z m89
-46 c79 -18 79 -18 44 -41 -18 -11 -40 -34 -48 -50 -9 -16 -17 -28 -19 -26 -6
5 -33 128 -28 128 2 0 25 -5 51 -11z"/>
<path d="M467 203 c-50 -83 -56 -98 -44 -110 12 -12 22 -12 71 2 51 15 61 15
108 1 36 -10 57 -12 70 -5 23 12 26 4 -42 117 -75 125 -85 124 -163 -5z m120
-9 l30 -50 -67 0 -67 1 25 40 c28 45 44 67 47 63 1 -2 15 -26 32 -54z"/>
<path d="M167 209 c-22 -13 -22 -36 1 -47 23 -12 42 -4 42 18 0 26 -22 41 -43
29z"/>
<path d="M907 209 c-22 -13 -22 -45 -1 -53 19 -7 44 10 44 29 0 21 -23 34 -43
24z"/>
<path d="M525 50 c-12 -20 6 -51 28 -48 31 4 31 52 0 56 -11 2 -24 -2 -28 -8z"/>
</g>
</svg>
