<svg id="Layer_1" data-name="Layer 1" xmlns="http://www.w3.org/2000/svg" viewBox="0 0 400 320"><defs><style>.cls-1{fill:#fd5758;}.cls-2{fill:none;}.cls-3{fill:#fff;}</style></defs><rect id="Rectangle_173" data-name="Rectangle 173" class="cls-1" width="400" height="320"/><g id="build_black_24dp" data-name="build black 24dp"><path id="Path_437" data-name="Path 437" class="cls-2" d="M129.58,89.11H270.42V230.89H129.58Z"/><path id="Path_438" data-name="Path 438" class="cls-3" d="M267.33,204.38l-57.41-57.65a41.45,41.45,0,0,0-9.11-44.45,41,41,0,0,0-53.31-4.12l24.28,24.44-9,9-24.22-24.32a41.15,41.15,0,0,0,47.68,62.85l57.61,57.84a6.27,6.27,0,0,0,8.88,0l0,0,14.54-14.6a6.23,6.23,0,0,0,.14-8.81Zm-19,10.16-59.82-60.07a27.61,27.61,0,0,1-12.65,5.21,28.4,28.4,0,0,1-32.56-29.78l19.54,19.62,26.81-26.91L170.14,103a28.44,28.44,0,0,1,29.59,33.46,27.63,27.63,0,0,1-5.56,12.45l59.76,60Z"/></g></svg>