<svg id="Layer_1" data-name="Layer 1" xmlns="http://www.w3.org/2000/svg" viewBox="0 0 400 320"><defs><style>.cls-1{fill:#fd5758;}.cls-2{fill:none;}.cls-3{fill:#fff;}</style></defs><rect id="Rectangle_169" data-name="Rectangle 169" class="cls-1" width="400" height="320"/><g id="lightbulb_black_24dp" data-name="lightbulb black 24dp"><path id="Path_439" data-name="Path 439" class="cls-2" d="M138,83.24h124.1V236.76H138Z"/><path id="Path_440" data-name="Path 440" class="cls-3" d="M175.55,227.28c0,4.12,3.67,7.48,8.15,7.48h32.6c4.48,0,8.15-3.36,8.15-7.48v-7.47h-48.9ZM200,85.24c-31.46,0-57.05,23.47-57.05,52.33,0,17.79,9.7,33.42,24.45,42.91v16.9c0,4.12,3.67,7.48,8.15,7.48h48.9c4.48,0,8.15-3.36,8.15-7.48v-16.9c14.75-9.49,24.45-25.12,24.45-42.91C257.05,108.71,231.46,85.24,200,85.24Zm23.22,83-6.92,4.49V189.9H183.7V172.71l-6.93-4.49c-11-7-17.52-18.46-17.52-30.65,0-20.63,18.26-37.38,40.75-37.38s40.75,16.75,40.75,37.38C240.75,149.76,234.23,161.2,223.22,168.22Z"/></g></svg>