<svg id="Layer_1" data-name="Layer 1" xmlns="http://www.w3.org/2000/svg" viewBox="0 0 400 320"><defs><style>.cls-1{fill:#5fabd3;}.cls-2,.cls-3{fill:#fff;}.cls-2{fill-rule:evenodd;}</style></defs><rect id="Rectangle_174" data-name="Rectangle 174" class="cls-1" width="400" height="320"/><g id="Group_9" data-name="Group 9"><g id="Group_8" data-name="Group 8"><g id="Group_7" data-name="Group 7"><path id="Path_442" data-name="Path 442" class="cls-2" d="M280.15,87.75H119.86c-11,0-20,7.22-20,16.06V216.19c0,8.84,9,16.06,20,16.06H280.14c11,0,20-7.22,20-16.06V103.81C300.18,95,291.17,87.75,280.15,87.75Zm0,128.44H119.86V103.81H280.14Z"/><path id="Path_443" data-name="Path 443" class="cls-2" d="M270.11,145l-13.55-16-30.22,35.8-13.45-16-13.44,15.92,26.89,32.08Z"/><rect id="Rectangle_181" data-name="Rectangle 181" class="cls-3" x="137.82" y="120.75" width="50" height="20"/><rect id="Rectangle_182" data-name="Rectangle 182" class="cls-3" x="137.82" y="151.75" width="50" height="20"/><rect id="Rectangle_183" data-name="Rectangle 183" class="cls-3" x="137.82" y="184.75" width="50" height="19"/></g></g></g></svg>