<svg width="30" height="30" viewBox="0 0 30 30" fill="none" xmlns="http://www.w3.org/2000/svg">
<g clip-path="url(#clip0)">
<path d="M7.03125 15.0001C7.03125 13.5138 7.44076 12.1214 8.15221 10.9292V5.87207H3.0951C1.08797 8.47879 0 11.6557 0 15.0001C0 18.3445 1.08797 21.5214 3.0951 24.1281H8.15221V19.071C7.44076 17.8788 7.03125 16.4864 7.03125 15.0001Z" fill="#FBBD00"/>
<path d="M15 22.9688L11.4844 26.4845L15 30.0001C18.3445 30.0001 21.5213 28.9121 24.128 26.905V21.8533H19.0763C17.8737 22.5673 16.4754 22.9688 15 22.9688Z" fill="#0F9D58"/>
<path d="M8.15184 19.0713L3.09473 24.1284C3.49211 24.6445 3.92482 25.1387 4.39305 25.607C7.22617 28.4401 10.993 30.0004 14.9996 30.0004V22.9691C12.092 22.9691 9.54355 21.4035 8.15184 19.0713Z" fill="#31AA52"/>
<path d="M30 14.9998C30 14.0872 29.9174 13.1729 29.7544 12.2824L29.6225 11.5618H15V18.593H22.1163C21.4253 19.9677 20.3627 21.0892 19.0762 21.8531L24.128 26.9048C24.6441 26.5074 25.1383 26.0747 25.6066 25.6065C28.4397 22.7733 30 19.0065 30 14.9998Z" fill="#3C79E6"/>
<path d="M20.6348 9.36521L21.2562 9.98666L26.2281 5.01486L25.6066 4.39342C22.7735 1.56029 19.0067 0 15 0L11.4844 3.51562L15 7.03125C17.1285 7.03125 19.1296 7.86012 20.6348 9.36521Z" fill="#CF2D48"/>
<path d="M14.9997 7.03125V0C10.993 0 7.22623 1.56029 4.39305 4.39336C3.92482 4.86158 3.49211 5.35582 3.09473 5.87197L8.15184 10.9291C9.54361 8.59687 12.092 7.03125 14.9997 7.03125Z" fill="#EB4132"/>
</g>
<defs>
<clipPath id="clip0">
<rect width="30" height="30" fill="white"/>
</clipPath>
</defs>
</svg>
