<svg width="49" height="48" viewBox="0 0 49 48" fill="none" xmlns="http://www.w3.org/2000/svg">
<g opacity="0.2">
<rect x="1" y="0.5" width="47" height="47" rx="15.5" stroke="white"/>
</g>
<path opacity="0.3" fill-rule="evenodd" clip-rule="evenodd" d="M24.0522 29.04C22.7532 29.04 21.7002 30.0931 21.7002 31.392V34.976C21.7002 35.409 22.0512 35.76 22.4842 35.76H26.5162C26.9492 35.76 27.3002 35.409 27.3002 34.976V31.392C27.3002 30.0931 26.2472 29.04 24.9482 29.04H24.0522Z" fill="#FFF500"/>
<path fill-rule="evenodd" clip-rule="evenodd" d="M28.4202 35.0665V31.3771C28.4202 29.4669 26.674 27.9183 24.7638 27.9183H24.2367C22.3265 27.9183 20.5802 29.4669 20.5802 31.3771V35.0665C20.5802 35.3091 20.6218 35.5419 20.6983 35.7583H18.9661C17.0559 35.7583 15.5073 34.2097 15.5073 32.2995V21.7181L13.8875 23.1354C13.6 23.3869 13.163 23.3578 12.9114 23.0703C12.6598 22.7828 12.689 22.3457 12.9765 22.0941L24.0447 12.4094C24.3055 12.1812 24.695 12.1812 24.9558 12.4094L36.024 22.0941C36.3115 22.3457 36.3406 22.7828 36.0891 23.0703C35.8375 23.3578 35.4005 23.3869 35.1129 23.1354L33.4932 21.7181V32.2995C33.4932 34.2097 31.9446 35.7583 30.0343 35.7583H28.3021C28.3786 35.5419 28.4202 35.3091 28.4202 35.0665Z" fill="#FFF500"/>
</svg>
