<svg width="400" height="320" viewBox="0 0 400 320" fill="none" xmlns="http://www.w3.org/2000/svg">
<path d="M200 315.88C286.09 315.88 355.88 246.09 355.88 160C355.88 73.9099 286.09 4.12 200 4.12C113.91 4.12 44.12 73.9099 44.12 160C44.12 246.09 113.91 315.88 200 315.88Z" fill="#EEEDFC"/>
<path d="M257.78 102.22H142.22C138.4 102.236 134.742 103.766 132.048 106.475C129.354 109.183 127.845 112.85 127.85 116.67L127.78 203.33C127.791 207.157 129.315 210.825 132.02 213.532C134.726 216.24 138.393 217.767 142.22 217.78H257.78C261.607 217.767 265.274 216.24 267.98 213.532C270.685 210.825 272.209 207.157 272.22 203.33V116.67C272.209 112.843 270.685 109.175 267.98 106.467C265.274 103.76 261.607 102.233 257.78 102.22ZM142.22 138.33H218.06V163.61H142.22V138.33ZM142.22 178.06H218.06V203.33H149.44C147.527 203.325 145.693 202.562 144.341 201.209C142.988 199.857 142.225 198.023 142.22 196.11V178.06ZM250.56 203.33H232.5V138.33H257.78V196.11C257.775 198.023 257.012 199.857 255.66 201.209C254.307 202.562 252.473 203.325 250.56 203.33Z" fill="#5654D7"/>
</svg>
