<svg width="294" height="263" viewBox="0 0 294 263" fill="none" xmlns="http://www.w3.org/2000/svg">
<path d="M232.69 1H60.99C27.8529 1 0.98999 27.8629 0.98999 61V201.16C0.98999 234.297 27.8529 261.16 60.99 261.16H232.69C265.827 261.16 292.69 234.297 292.69 201.16V61C292.69 27.8629 265.827 1 232.69 1Z" fill="#5257CD"/>
<path d="M232.68 262.16H61C44.8283 262.139 29.325 255.705 17.8899 244.27C6.45473 232.835 0.0211672 217.332 0 201.16V61C0.0211672 44.8283 6.45473 29.325 17.8899 17.8899C29.325 6.45473 44.8283 0.0211672 61 0H232.68C248.852 0.0211672 264.355 6.45473 275.79 17.8899C287.225 29.325 293.659 44.8283 293.68 61V201.16C293.659 217.332 287.225 232.835 275.79 244.27C264.355 255.705 248.852 262.139 232.68 262.16ZM61 2C45.3579 2.01853 30.3618 8.24053 19.3012 19.3012C8.24053 30.3618 2.01853 45.3579 2 61V201.16C2.01853 216.802 8.24053 231.798 19.3012 242.859C30.3618 253.919 45.3579 260.141 61 260.16H232.68C248.322 260.141 263.318 253.919 274.379 242.859C285.439 231.798 291.661 216.802 291.68 201.16V61C291.661 45.3579 285.439 30.3618 274.379 19.3012C263.318 8.24053 248.322 2.01853 232.68 2H61Z" fill="#858CDD"/>
<path d="M208.76 96.52H184.43C180.39 90.3354 175.002 85.1457 168.67 81.34L182.78 68.71L170.57 57.79L151.84 74.6C147.798 73.7278 143.675 73.2854 139.54 73.28C135.434 73.2804 131.341 73.723 127.33 74.6L108.41 57.79L96.2 68.71L110.2 81.34C103.91 85.1676 98.5554 90.3544 94.53 96.52H70.23V112.02H88.32C87.8436 114.574 87.5827 117.163 87.54 119.76V127.51H70.23V143H87.54V150.75C87.5832 153.351 87.8441 155.943 88.32 158.5H70.23V173.99H94.56C103.56 187.86 120.27 197.23 139.49 197.23C158.71 197.23 175.42 187.86 184.43 173.99H208.76V158.5H190.66C191.136 155.943 191.397 153.351 191.44 150.75V143H208.76V127.51H191.44V119.76C191.397 117.163 191.136 114.574 190.66 112.02H208.76V96.52ZM174.12 127.52V150.76C174.084 152.581 173.883 154.395 173.52 156.18L172.65 161.18L169.45 166.18C163.21 175.79 151.79 181.68 139.45 181.68C127.11 181.68 115.73 175.68 109.45 166.18L106.24 161.18L105.38 156.18C105.004 154.37 104.8 152.528 104.77 150.68V119.68C104.796 117.858 105.001 116.043 105.38 114.26L106.24 109.26L109.45 104.26C112.173 100.127 115.78 96.6495 120.01 94.08L124.95 91.08L131.35 89.69C134.02 89.0755 136.75 88.7636 139.49 88.76C142.259 88.763 145.02 89.0749 147.72 89.69L153.6 90.93L158.89 94.18C163.119 96.7064 166.704 100.181 169.36 104.33L172.65 109.33L173.52 114.33C173.887 116.087 174.088 117.875 174.12 119.67V127.52ZM122.18 143.01H156.84V158.51H122.18V143.01ZM122.18 112.01H156.84V127.5H122.18V112.01Z" fill="#FEF452"/>
</svg>
