<svg width="294" height="263" viewBox="0 0 294 263" fill="none" xmlns="http://www.w3.org/2000/svg">
<path d="M232.7 1H61C27.8629 1 1 27.8629 1 61V201.16C1 234.297 27.8629 261.16 61 261.16H232.7C265.837 261.16 292.7 234.297 292.7 201.16V61C292.7 27.8629 265.837 1 232.7 1Z" fill="#5257CD"/>
<path d="M232.69 262.16H61C44.8283 262.139 29.325 255.705 17.8899 244.27C6.45473 232.835 0.0211672 217.332 0 201.16V61C0.0211672 44.8283 6.45473 29.325 17.8899 17.8899C29.325 6.45473 44.8283 0.0211672 61 0H232.69C248.862 0.0211672 264.365 6.45473 275.8 17.8899C287.235 29.325 293.669 44.8283 293.69 61V201.16C293.669 217.332 287.235 232.835 275.8 244.27C264.365 255.705 248.862 262.139 232.69 262.16ZM61 2C45.3579 2.01853 30.3618 8.24053 19.3012 19.3012C8.24053 30.3618 2.01853 45.3579 2 61V201.16C2.01853 216.802 8.24053 231.798 19.3012 242.859C30.3618 253.919 45.3579 260.141 61 260.16H232.69C248.332 260.141 263.328 253.919 274.389 242.859C285.449 231.798 291.671 216.802 291.69 201.16V61C291.671 45.3579 285.449 30.3618 274.389 19.3012C263.328 8.24053 248.332 2.01853 232.69 2H61Z" fill="#858CDD"/>
<path d="M134.67 138.78V107.99C134.607 105.897 133.719 103.914 132.2 102.473C130.68 101.033 128.653 100.251 126.56 100.3H94.0999V84.8998H134.67V69.5098H114.38V61.8198H98.1499V69.5098H85.9799C83.8884 69.477 81.8673 70.2646 80.3495 71.7038C78.8318 73.1431 77.938 75.1196 77.8599 77.2098V107.99C77.938 110.08 78.8318 112.057 80.3495 113.496C81.8673 114.935 83.8884 115.723 85.9799 115.69H118.44V131.08H77.9099V146.47H98.1999V154.17H114.43V146.47H126.61C128.694 146.505 130.709 145.718 132.218 144.278C133.726 142.839 134.607 140.864 134.67 138.78Z" fill="#FEF452"/>
<path d="M204.39 135.08L158.45 178.56L135.48 156.78L124.04 167.71L158.45 200.34L215.83 145.93L204.39 135.08Z" fill="#FEF452"/>
</svg>
