<svg width="270" height="270" viewBox="0 0 270 270" fill="none" xmlns="http://www.w3.org/2000/svg">
<path d="M134.78 269.56C209.217 269.56 269.56 209.217 269.56 134.78C269.56 60.3431 209.217 0 134.78 0C60.3431 0 0 60.3431 0 134.78C0 209.217 60.3431 269.56 134.78 269.56Z" fill="#F7F9FA"/>
<path d="M124.19 141.78V113.78C124.19 112.855 124.007 111.94 123.652 111.087C123.296 110.234 122.775 109.459 122.119 108.809C121.462 108.158 120.683 107.644 119.827 107.295C118.971 106.947 118.054 106.772 117.13 106.78H88.9V92.7798H124.19V78.7798H106.54V71.7798H92.43V78.7798H81.84C79.9771 78.7771 78.1889 79.5118 76.8661 80.8234C75.5432 82.1351 74.7932 83.917 74.78 85.7798V113.78C74.7932 115.643 75.5432 117.425 76.8661 118.736C78.1889 120.048 79.9771 120.782 81.84 120.78H110.07V134.78H74.78V148.78H92.43V155.78H106.54V148.78H117.13C118.054 148.788 118.971 148.613 119.827 148.264C120.683 147.916 121.462 147.402 122.119 146.751C122.775 146.1 123.296 145.326 123.652 144.473C124.007 143.619 124.19 142.704 124.19 141.78Z" fill="#0D64D5"/>
<path d="M184.83 138.42L144.87 177.97L124.9 158.16L114.94 168.1L144.87 197.78L194.78 148.29L184.83 138.42Z" fill="#0D64D5"/>
</svg>
