<svg width="60" height="61" viewBox="0 0 60 61" fill="none" xmlns="http://www.w3.org/2000/svg">
<path fill-rule="evenodd" clip-rule="evenodd" d="M30 60.2852C46.5685 60.2852 60 46.8537 60 30.2852C60 13.7166 46.5685 0.285156 30 0.285156C13.4315 0.285156 0 13.7166 0 30.2852C0 46.8537 13.4315 60.2852 30 60.2852Z" fill="#F7F8FA"/>
<path d="M31.452 34.9187H26.57C26.3035 32.9411 24.4927 31.4053 22.3006 31.4053C19.9261 31.4053 17.9941 33.2066 17.9941 35.4206C17.9941 37.6345 19.9261 39.4359 22.3006 39.4359C24.4927 39.4359 26.3035 37.9 26.57 35.9225H31.452C31.7496 35.9225 31.9903 35.6981 31.9903 35.4206C31.9903 35.143 31.7496 34.9187 31.452 34.9187Z" fill="#0F53FA"/>
<path d="M37.7797 31.3939C37.1491 31.3939 36.5531 31.5306 36.0155 31.7694L33.962 28.63C33.8084 28.3948 33.4839 28.3229 33.2372 28.4707C32.991 28.6174 32.9163 28.9275 33.0704 29.1633L35.1229 32.3006C34.1771 33.0385 33.5717 34.1598 33.5717 35.4149C33.5717 37.632 35.4595 39.4359 37.7797 39.4359C40.0999 39.4359 41.9878 37.632 41.9878 35.4149C41.9878 33.1978 40.0999 31.3939 37.7797 31.3939Z" fill="#0F53FA"/>
<path d="M29.7556 19.3594C27.4211 19.3594 25.5216 21.1773 25.5216 23.4117C25.5216 24.6765 26.1307 25.8066 27.0818 26.5502L25.0728 29.6264C24.9177 29.864 24.9934 30.1765 25.2405 30.3244C25.3279 30.3771 25.4252 30.4014 25.5205 30.4014C25.6968 30.4014 25.8693 30.3174 25.9698 30.1634L27.9805 27.0851C28.5214 27.3262 29.1211 27.464 29.7556 27.464C32.0902 27.464 33.9897 25.646 33.9897 23.4117C33.9897 21.1773 32.0902 19.3594 29.7556 19.3594Z" fill="#0F53FA"/>
</svg>
