<svg width="270" height="270" viewBox="0 0 270 270" fill="none" xmlns="http://www.w3.org/2000/svg">
<path d="M134.78 269.56C209.217 269.56 269.56 209.217 269.56 134.78C269.56 60.3431 209.217 0 134.78 0C60.3431 0 0 60.3431 0 134.78C0 209.217 60.3431 269.56 134.78 269.56Z" fill="#F7F9FA"/>
<path d="M181.45 71.7798H88.11C80.78 71.7798 74.78 78.0798 74.78 85.7798V183.78C74.78 191.48 80.78 197.78 88.11 197.78H181.45C188.78 197.78 194.78 191.48 194.78 183.78V85.7798C194.78 78.0798 188.78 71.7798 181.45 71.7798ZM181.45 183.78H88.11V85.7798H181.45V183.78Z" fill="#0D64D5"/>
<path d="M129.78 104.82H96.45V115.32H129.78V104.82Z" fill="#0D64D5"/>
<path d="M174.78 161.03H141.45V171.53H174.78V161.03Z" fill="#0D64D5"/>
<path d="M174.78 143.53H141.45V154.03H174.78V143.53Z" fill="#0D64D5"/>
<path d="M108.11 176.78H118.11V162.78H131.45V152.28H118.11V138.28H108.11V152.28H94.78V162.78H108.11V176.78Z" fill="#0D64D5"/>
<path d="M148.71 127.43L158.11 117.56L167.51 127.43L174.58 120.01L165.18 110.07L174.58 100.2L167.51 92.7798L158.11 102.65L148.71 92.7798L141.65 100.2L151.05 110.07L141.65 120.01L148.71 127.43Z" fill="#0D64D5"/>
</svg>
