<svg width="294" height="263" viewBox="0 0 294 263" fill="none" xmlns="http://www.w3.org/2000/svg">
<path d="M232.69 1H60.99C27.8529 1 0.98999 27.8629 0.98999 61V201.16C0.98999 234.297 27.8529 261.16 60.99 261.16H232.69C265.827 261.16 292.69 234.297 292.69 201.16V61C292.69 27.8629 265.827 1 232.69 1Z" fill="#5257CD"/>
<path d="M232.68 262.16H61C44.8283 262.139 29.325 255.705 17.8899 244.27C6.45473 232.835 0.0211672 217.332 0 201.16V61C0.0211672 44.8283 6.45473 29.325 17.8899 17.8899C29.325 6.45473 44.8283 0.0211672 61 0H232.68C248.852 0.0211672 264.355 6.45473 275.79 17.8899C287.225 29.325 293.659 44.8283 293.68 61V201.16C293.659 217.332 287.225 232.835 275.79 244.27C264.355 255.705 248.852 262.139 232.68 262.16ZM61 2C45.3579 2.01853 30.3618 8.24053 19.3012 19.3012C8.24053 30.3618 2.01853 45.3579 2 61V201.16C2.01853 216.802 8.24053 231.798 19.3012 242.859C30.3618 253.919 45.3579 260.141 61 260.16H232.68C248.322 260.141 263.318 253.919 274.379 242.859C285.439 231.798 291.661 216.802 291.68 201.16V61C291.661 45.3579 285.439 30.3618 274.379 19.3012C263.318 8.24053 248.322 2.01853 232.68 2H61Z" fill="#7477D7"/>
<path d="M213.91 175.08L156.76 117.87C160.037 109.627 160.547 100.543 158.212 91.9852C155.877 83.4276 150.824 75.8608 143.814 70.4252C136.804 64.9895 128.218 61.9795 119.348 61.8487C110.479 61.7179 101.807 64.4735 94.6399 69.7001L118.84 93.9601L109.84 102.85L85.7299 78.7101C80.53 85.8244 77.7674 94.4281 77.8538 103.24C77.9401 112.051 80.8707 120.599 86.2091 127.61C91.5474 134.621 99.0078 139.72 107.479 142.147C115.95 144.575 124.979 144.2 133.22 141.08L190.56 198.48C191.141 199.065 191.832 199.529 192.593 199.846C193.354 200.163 194.17 200.326 194.995 200.326C195.819 200.326 196.636 200.163 197.397 199.846C198.158 199.529 198.849 199.065 199.43 198.48L213.91 183.99C214.508 183.413 214.984 182.721 215.31 181.955C215.635 181.19 215.802 180.367 215.802 179.535C215.802 178.703 215.635 177.88 215.31 177.115C214.984 176.35 214.508 175.657 213.91 175.08ZM195.02 185.16L135.48 125.56C131.785 128.307 127.459 130.081 122.9 130.72C118.744 131.349 114.5 131.043 110.478 129.823C106.455 128.603 102.756 126.501 99.6494 123.669C96.543 120.838 94.1077 117.349 92.5214 113.456C90.935 109.564 90.2376 105.366 90.4799 101.17L109.93 120.64L136.62 93.9201L117.17 74.4501C121.435 74.2029 125.701 74.9259 129.646 76.5649C133.592 78.2039 137.115 80.7162 139.949 83.9127C142.784 87.1093 144.857 90.907 146.012 95.0202C147.168 99.1334 147.375 103.455 146.62 107.66C145.848 112.199 143.946 116.47 141.09 120.08L200.56 179.63L195.02 185.16Z" fill="#FEF452"/>
</svg>
