<svg width="288" height="269" viewBox="0 0 288 269" fill="none" xmlns="http://www.w3.org/2000/svg">
<path d="M228.133 1.57471H59.867C27.3927 1.57471 1.06702 29.0252 1.06702 62.8872V206.113C1.06702 239.975 27.3927 267.426 59.867 267.426H228.133C260.607 267.426 286.933 239.975 286.933 206.113V62.8872C286.933 29.0252 260.607 1.57471 228.133 1.57471Z" fill="#5257CD"/>
<path d="M228.123 268.447H59.8768C44.0285 268.426 28.8353 261.852 17.6289 250.166C6.42244 238.481 0.117546 222.639 0.0968018 206.113V62.8871C0.117546 46.3617 6.42244 30.5192 17.6289 18.8339C28.8353 7.14866 44.0285 0.574365 59.8768 0.552734H228.123C243.971 0.574365 259.165 7.14866 270.371 18.8339C281.578 30.5192 287.882 46.3617 287.903 62.8871V206.113C287.882 222.639 281.578 238.481 270.371 250.166C259.165 261.852 243.971 268.426 228.123 268.447V268.447ZM59.8768 2.59648C44.5476 2.61542 29.8514 8.97353 19.0119 20.2761C8.17252 31.5787 2.07496 46.9029 2.0568 62.8871V206.113C2.07496 222.097 8.17252 237.422 19.0119 248.724C29.8514 260.027 44.5476 266.385 59.8768 266.404H228.123C243.452 266.385 258.149 260.027 268.988 248.724C279.827 237.422 285.925 222.097 285.943 206.113V62.8871C285.925 46.9029 279.827 31.5787 268.988 20.2761C258.149 8.97353 243.452 2.61542 228.123 2.59648H59.8768Z" fill="#858CDD"/>
<path d="M138.365 100.962H100.792V112.713H138.365V100.962Z" fill="#FEF452"/>
<path d="M189.09 163.879H151.517V175.63H189.09V163.879Z" fill="#FEF452"/>
<path d="M189.09 144.29H151.517V156.041H189.09V144.29Z" fill="#FEF452"/>
<path d="M113.943 181.506H125.213V165.841H140.247V154.089H125.213V138.414H113.943V154.089H98.92V165.841H113.943V181.506Z" fill="#FEF452"/>
<path d="M159.709 126.274L170.303 115.227L180.897 126.274L188.855 117.966L178.261 106.838L188.855 95.7913L180.897 87.4937L170.303 98.5401L159.709 87.4937L151.742 95.7913L162.336 106.838L151.742 117.966L159.709 126.274Z" fill="#FEF452"/>
</svg>
