<svg width="60" height="60" viewBox="0 0 60 60" fill="none" xmlns="http://www.w3.org/2000/svg">
<path fill-rule="evenodd" clip-rule="evenodd" d="M30 60.2852C46.5685 60.2852 60 46.8537 60 30.2852C60 13.7166 46.5685 0.285156 30 0.285156C13.4315 0.285156 0 13.7166 0 30.2852C0 46.8537 13.4315 60.2852 30 60.2852Z" fill="#F7F8FA"/>
<path d="M25.5931 30.4014H22.394C22.1733 30.4014 21.9941 30.6037 21.9941 30.8531V38.9841C21.9941 39.2334 22.1733 39.4358 22.394 39.4358H25.5931C25.8139 39.4358 25.993 39.2334 25.993 38.9841V30.8531C25.993 30.6037 25.8139 30.4014 25.5931 30.4014Z" fill="#0F53FA"/>
<path d="M37.8888 26.0643L32.3519 19.5149C32.177 19.3075 31.8061 19.3075 31.6312 19.5149L26.0943 26.0643C25.9836 26.1953 25.9619 26.3747 26.0385 26.5262C26.1155 26.6777 26.2775 26.7738 26.4547 26.7738H29.6845V38.9993C29.6845 39.2403 29.8912 39.4359 30.1459 39.4359H33.8372C34.0919 39.4359 34.2986 39.2403 34.2986 38.9993V26.7738H37.5284C37.7056 26.7738 37.8676 26.6777 37.9442 26.5262C38.0212 26.3752 37.9995 26.1953 37.8888 26.0643Z" fill="#0F53FA"/>
</svg>
