<svg width="400" height="320" viewBox="0 0 400 320" fill="none" xmlns="http://www.w3.org/2000/svg">
<path d="M200 315.88C286.09 315.88 355.88 246.09 355.88 160C355.88 73.91 286.09 4.12012 200 4.12012C113.91 4.12012 44.12 73.91 44.12 160C44.12 246.09 113.91 315.88 200 315.88Z" fill="#FDEDE9"/>
<path d="M234 156.06L246.6 143.46L216.51 113.37L203.92 126L170.7 92.8302C167.686 89.824 163.602 88.1357 159.345 88.1357C155.088 88.1357 151.004 89.824 147.99 92.8302L132.74 108.08C129.734 111.095 128.046 115.178 128.046 119.435C128.046 123.692 129.734 127.776 132.74 130.79L165.89 163.93L128.97 200.93C128.586 201.307 128.282 201.756 128.076 202.253C127.87 202.75 127.766 203.283 127.77 203.82V228.22C127.77 229.281 128.191 230.298 128.942 231.049C129.692 231.799 130.709 232.22 131.77 232.22H156.17C156.701 232.23 157.229 232.127 157.717 231.916C158.205 231.706 158.642 231.393 159 231L196.08 193.93L229.22 227.07C239.81 237.66 251.37 227.63 251.93 227.07L267.18 211.83C270.186 208.816 271.875 204.732 271.875 200.475C271.875 196.218 270.186 192.135 267.18 189.12L234 156.06ZM177.35 152.53L144.13 119.39L159.29 104.14L169.49 114.34L165.71 118.27C164.906 118.997 164.259 119.88 163.806 120.865C163.354 121.85 163.107 122.916 163.079 123.999C163.051 125.083 163.244 126.16 163.646 127.167C164.047 128.174 164.649 129.088 165.415 129.855C166.18 130.622 167.094 131.226 168.1 131.629C169.105 132.032 170.183 132.227 171.266 132.201C172.35 132.175 173.417 131.93 174.402 131.479C175.388 131.029 176.272 130.383 177 129.58L180.85 125.73L192.49 137.37L177.35 152.53ZM240.58 215.85L207.44 182.71L222.69 167.46L234.33 179.09L230.48 183C229.737 183.743 229.148 184.626 228.747 185.597C228.345 186.568 228.139 187.608 228.139 188.659C228.14 189.709 228.347 190.75 228.75 191.72C229.152 192.691 229.742 193.573 230.485 194.315C231.228 195.058 232.111 195.647 233.081 196.048C234.052 196.45 235.093 196.657 236.144 196.656C237.194 196.656 238.235 196.448 239.205 196.046C240.176 195.643 241.057 195.053 241.8 194.31L245.65 190.46L255.84 200.65L240.58 215.85Z" fill="#EE3F3A"/>
<path d="M269.89 120.19C271.389 118.69 272.231 116.656 272.231 114.535C272.231 112.414 271.389 110.38 269.89 108.88L251.11 90.1001C249.597 88.622 247.565 87.7944 245.45 87.7944C243.335 87.7944 241.303 88.622 239.79 90.1001L225.11 104.79L255.2 134.88L269.89 120.19Z" fill="#EE3F3A"/>
</svg>
