<svg width="270" height="270" viewBox="0 0 270 270" fill="none" xmlns="http://www.w3.org/2000/svg">
<path d="M134.78 269.56C209.217 269.56 269.56 209.217 269.56 134.78C269.56 60.3431 209.217 0 134.78 0C60.3431 0 0 60.3431 0 134.78C0 209.217 60.3431 269.56 134.78 269.56Z" fill="#F7F9FA"/>
<path d="M149.76 120.41H119.57V135.1H149.76V120.41Z" fill="#0D64D5"/>
<path d="M149.76 148.56H119.57V163.25H149.76V148.56Z" fill="#0D64D5"/>
<path d="M194.46 106.46H174.52C174.467 106.46 174.415 106.447 174.368 106.423C174.321 106.398 174.281 106.363 174.25 106.32C172.282 103.235 169.93 100.412 167.25 97.9199C165.219 96.0665 163.031 94.3935 160.71 92.9199C160.647 92.8822 160.601 92.8221 160.58 92.7515C160.56 92.681 160.567 92.6054 160.6 92.5399C160.595 92.5168 160.595 92.493 160.6 92.4699L172.05 81.7799C172.101 81.726 172.13 81.6543 172.13 81.5799C172.13 81.5054 172.101 81.4338 172.05 81.3799L161.86 71.8699C161.797 71.8122 161.715 71.7803 161.63 71.7803C161.545 71.7803 161.463 71.8122 161.4 71.8699L145.72 86.4799C145.679 86.5147 145.631 86.54 145.579 86.5539C145.527 86.5677 145.473 86.5698 145.42 86.5599C142.057 85.8419 138.628 85.4799 135.19 85.4799C131.506 85.4919 127.835 85.9281 124.25 86.7799C124.197 86.7913 124.143 86.79 124.09 86.7761C124.038 86.7622 123.99 86.7361 123.95 86.6999L108.09 71.8699C108.029 71.8129 107.949 71.7813 107.865 71.7813C107.782 71.7813 107.701 71.8129 107.64 71.8699L97.43 81.3799C97.3822 81.4316 97.3557 81.4994 97.3557 81.5699C97.3557 81.6403 97.3822 81.7081 97.43 81.7599L109.16 92.7799C109.219 92.8238 109.259 92.8894 109.27 92.9625C109.282 93.0356 109.264 93.1101 109.22 93.1699C109.205 93.1946 109.185 93.2153 109.16 93.2299C103.95 96.6413 99.5195 101.116 96.16 106.36C96.1318 106.403 96.0932 106.438 96.0478 106.463C96.0024 106.487 95.9516 106.5 95.9 106.5H75.14C75.0585 106.5 74.98 106.531 74.9205 106.586C74.8611 106.642 74.8251 106.719 74.82 106.8V120.33C74.8275 120.409 74.8645 120.483 74.9237 120.537C74.983 120.591 75.0601 120.62 75.14 120.62H90.14C90.2215 120.622 90.2989 120.656 90.3565 120.713C90.4141 120.771 90.4475 120.848 90.45 120.93C90.0385 123.21 89.831 125.523 89.83 127.84V134.34C89.8249 134.421 89.789 134.498 89.7295 134.553C89.6701 134.609 89.5915 134.64 89.51 134.64H75.14C75.0585 134.64 74.98 134.671 74.9205 134.726C74.8611 134.782 74.8251 134.859 74.82 134.94V148.46C74.8273 148.54 74.864 148.615 74.923 148.671C74.982 148.726 75.0592 148.758 75.14 148.76H89.48C89.5211 148.757 89.5622 148.763 89.601 148.777C89.6397 148.791 89.6752 148.812 89.7052 148.84C89.7352 148.868 89.7591 148.902 89.7754 148.94C89.7917 148.978 89.8001 149.019 89.8 149.06V155.37C89.798 157.741 90.0122 160.108 90.44 162.44C90.4485 162.521 90.425 162.601 90.3745 162.665C90.324 162.729 90.2506 162.77 90.17 162.78H75.1C75.059 162.777 75.0178 162.783 74.9791 162.797C74.9403 162.811 74.9049 162.832 74.8748 162.86C74.8448 162.888 74.8209 162.922 74.8046 162.96C74.7883 162.998 74.7799 163.039 74.78 163.08V176.6C74.7826 176.683 74.8175 176.762 74.8772 176.82C74.9369 176.878 75.0169 176.91 75.1 176.91H95.9C95.9526 176.905 96.0055 176.914 96.0531 176.937C96.1007 176.96 96.1411 176.996 96.17 177.04C100.425 183.475 106.222 188.744 113.034 192.367C119.846 195.989 127.455 197.85 135.17 197.78C151.7 197.78 166.17 189.46 174.17 177.04C174.202 176.999 174.243 176.966 174.29 176.944C174.337 176.921 174.388 176.909 174.44 176.91H194.44C194.523 176.91 194.603 176.878 194.663 176.82C194.723 176.762 194.757 176.683 194.76 176.6V163.08C194.76 163.039 194.752 162.998 194.735 162.96C194.719 162.922 194.695 162.888 194.665 162.86C194.635 162.832 194.6 162.811 194.561 162.797C194.522 162.783 194.481 162.777 194.44 162.78H180.3C180.261 162.781 180.221 162.775 180.184 162.761C180.148 162.747 180.114 162.726 180.085 162.699C180.056 162.672 180.033 162.64 180.017 162.604C180 162.568 179.991 162.529 179.99 162.49V162.44C180.41 160.107 180.621 157.741 180.62 155.37V149.06C180.621 149.018 180.631 148.977 180.648 148.94C180.666 148.902 180.691 148.868 180.721 148.84C180.752 148.812 180.788 148.79 180.828 148.777C180.867 148.763 180.908 148.757 180.95 148.76H194.46C194.542 148.76 194.62 148.729 194.68 148.673C194.739 148.618 194.775 148.541 194.78 148.46V134.94C194.78 134.899 194.772 134.858 194.755 134.82C194.739 134.782 194.715 134.748 194.685 134.72C194.655 134.692 194.62 134.671 194.581 134.657C194.542 134.643 194.501 134.637 194.46 134.64H180.95C180.908 134.643 180.867 134.637 180.828 134.623C180.788 134.609 180.752 134.588 180.721 134.56C180.691 134.532 180.666 134.498 180.648 134.46C180.631 134.422 180.621 134.381 180.62 134.34V127.84C180.62 125.524 180.42 123.211 180.02 120.93C180.008 120.851 180.028 120.77 180.074 120.704C180.121 120.639 180.191 120.595 180.27 120.58H194.46C194.5 120.583 194.541 120.577 194.579 120.564C194.617 120.551 194.652 120.53 194.682 120.503C194.712 120.476 194.736 120.443 194.753 120.406C194.769 120.37 194.779 120.33 194.78 120.29V106.78C194.783 106.698 194.755 106.619 194.701 106.557C194.647 106.496 194.571 106.457 194.49 106.45L194.46 106.46ZM163.83 155.34C163.842 157.854 163.46 160.354 162.7 162.75C160.874 168.519 157.14 173.495 152.11 176.86C147.112 180.237 141.217 182.042 135.185 182.042C129.153 182.042 123.258 180.237 118.26 176.86C113.244 173.497 109.515 168.534 107.68 162.78C106.929 160.382 106.548 157.883 106.55 155.37V127.78C106.55 125.336 106.918 122.905 107.64 120.57C109.419 114.843 113.071 109.881 118.01 106.48C123.059 103.002 129.045 101.14 135.175 101.14C141.305 101.14 147.291 103.002 152.34 106.48C157.282 109.878 160.935 114.842 162.71 120.57C163.425 122.906 163.786 125.337 163.78 127.78L163.83 155.34Z" fill="#0D64D5"/>
</svg>
