<svg width="294" height="263" viewBox="0 0 294 263" fill="none" xmlns="http://www.w3.org/2000/svg">
<path d="M232.69 1H60.99C27.8529 1 0.98999 27.8629 0.98999 61V201.16C0.98999 234.297 27.8529 261.16 60.99 261.16H232.69C265.827 261.16 292.69 234.297 292.69 201.16V61C292.69 27.8629 265.827 1 232.69 1Z" fill="#5257CD"/>
<path d="M232.68 262.16H61C44.8283 262.139 29.325 255.705 17.8899 244.27C6.45473 232.835 0.0211672 217.332 0 201.16V61C0.0211672 44.8283 6.45473 29.325 17.8899 17.8899C29.325 6.45473 44.8283 0.0211672 61 0H232.68C248.852 0.0211672 264.355 6.45473 275.79 17.8899C287.225 29.325 293.659 44.8283 293.68 61V201.16C293.659 217.332 287.225 232.835 275.79 244.27C264.355 255.705 248.852 262.139 232.68 262.16ZM61 2C45.3579 2.01853 30.3618 8.24053 19.3012 19.3012C8.24053 30.3618 2.01853 45.3579 2 61V201.16C2.01853 216.802 8.24053 231.798 19.3012 242.859C30.3618 253.919 45.3579 260.141 61 260.16H232.68C248.322 260.141 263.318 253.919 274.379 242.859C285.439 231.798 291.661 216.802 291.68 201.16V61C291.661 45.3579 285.439 30.3618 274.379 19.3012C263.318 8.24053 248.322 2.01853 232.68 2H61Z" fill="#858CDD"/>
<path d="M100.84 137.46C107.16 137.46 112.34 131.72 112.34 124.7C112.34 117.68 107.16 111.93 100.84 111.93C94.5199 111.93 89.3399 117.68 89.3399 124.7C89.3399 131.72 94.5299 137.46 100.84 137.46ZM107.34 144.46C99.7037 143.008 91.8019 144.093 84.8399 147.55C82.6828 148.664 80.8824 150.362 79.6446 152.45C78.4068 154.539 77.7814 156.933 77.8399 159.36V169.36H103.71V159.08C103.714 153.989 104.963 148.977 107.35 144.48L107.34 144.46ZM192.82 137.46C199.14 137.46 204.32 131.72 204.32 124.7C204.32 117.68 199.14 111.93 192.82 111.93C186.5 111.93 181.32 117.68 181.32 124.7C181.32 131.72 186.51 137.46 192.84 137.46H192.82ZM215.82 159.36C215.878 156.933 215.253 154.539 214.015 152.45C212.777 150.362 210.977 148.664 208.82 147.55C201.862 144.104 193.968 143.026 186.34 144.48C188.72 148.979 189.962 153.991 189.96 159.08V169.38H215.84L215.82 159.36ZM171.2 141.61C163.629 137.85 155.293 135.886 146.84 135.87C138.388 135.92 130.056 137.882 122.47 141.61C116.26 144.68 112.35 151.61 112.35 159.1V169.38H181.35V159.08C181.33 151.57 177.42 144.68 171.21 141.61H171.2ZM124.2 156.61C124.71 155.15 124.94 154.12 129.43 152.21C134.913 149.848 140.82 148.63 146.79 148.63C152.76 148.63 158.667 149.848 164.15 152.21C168.58 154.12 168.81 155.15 169.38 156.61H124.2ZM146.84 105.55C150 105.55 152.59 108.42 152.59 111.93C152.59 115.44 150 118.31 146.84 118.31C143.68 118.31 141.09 115.44 141.09 111.93C141.09 108.42 143.68 105.55 146.84 105.55ZM146.84 92.7803C137.3 92.7803 129.59 101.33 129.59 111.93C129.59 122.53 137.3 131.08 146.84 131.08C156.38 131.08 164.09 122.53 164.09 111.93C164.09 101.33 156.38 92.7803 146.84 92.7803Z" fill="#FEF452"/>
</svg>
