<svg width="400" height="320" viewBox="0 0 400 320" fill="none" xmlns="http://www.w3.org/2000/svg">
<path d="M200 315.88C286.09 315.88 355.88 246.09 355.88 160C355.88 73.9099 286.09 4.12 200 4.12C113.91 4.12 44.12 73.9099 44.12 160C44.12 246.09 113.91 315.88 200 315.88Z" fill="#EBEAEE"/>
<path d="M239.66 117V103.82C239.649 100.317 238.253 96.9608 235.776 94.4838C233.299 92.0069 229.943 90.6106 226.44 90.6001H200C196.497 90.6106 193.141 92.0069 190.664 94.4838C188.187 96.9608 186.791 100.317 186.78 103.82V117H167C163.498 117.011 160.143 118.407 157.667 120.884C155.192 123.362 153.798 126.718 153.79 130.22V189.7C153.783 191.441 154.12 193.166 154.78 194.777C155.441 196.388 156.412 197.852 157.639 199.087C158.866 200.323 160.324 201.304 161.93 201.975C163.536 202.647 165.259 202.995 167 203H259.53C263.033 202.99 266.389 201.593 268.866 199.116C271.343 196.639 272.74 193.283 272.75 189.78V130.26C272.75 128.518 272.407 126.793 271.74 125.183C271.073 123.574 270.095 122.112 268.863 120.88C267.63 119.649 266.167 118.672 264.558 118.007C262.948 117.341 261.222 116.999 259.48 117H239.66ZM226.44 117H200V103.82H226.44V117ZM133.91 143.44C132.158 143.443 130.478 144.14 129.239 145.379C128 146.618 127.303 148.298 127.3 150.05V216.14C127.311 219.643 128.707 222.999 131.184 225.476C133.661 227.953 137.017 229.35 140.52 229.36H239.66C241.41 229.352 243.085 228.653 244.322 227.415C245.558 226.177 246.255 224.5 246.26 222.75C246.257 221 245.562 219.321 244.325 218.083C243.088 216.844 241.411 216.145 239.66 216.14H140.52V150.09C140.515 148.339 139.817 146.66 138.578 145.422C137.34 144.183 135.662 143.485 133.91 143.48V143.44Z" fill="#413D66"/>
</svg>
