<svg width="294" height="263" viewBox="0 0 294 263" fill="none" xmlns="http://www.w3.org/2000/svg">
<path d="M232.69 1H60.99C27.8529 1 0.98999 27.8629 0.98999 61V201.16C0.98999 234.297 27.8529 261.16 60.99 261.16H232.69C265.827 261.16 292.69 234.297 292.69 201.16V61C292.69 27.8629 265.827 1 232.69 1Z" fill="#5257CD"/>
<path d="M232.68 262.16H61C44.8283 262.139 29.325 255.705 17.8899 244.27C6.45473 232.835 0.0211672 217.332 0 201.16V61C0.0211672 44.8283 6.45473 29.325 17.8899 17.8899C29.325 6.45473 44.8283 0.0211672 61 0H232.68C248.852 0.0211672 264.355 6.45473 275.79 17.8899C287.225 29.325 293.659 44.8283 293.68 61V201.16C293.659 217.332 287.225 232.835 275.79 244.27C264.355 255.705 248.852 262.139 232.68 262.16ZM61 2C45.3579 2.01853 30.3618 8.24053 19.3012 19.3012C8.24053 30.3618 2.01853 45.3579 2 61V201.16C2.01853 216.802 8.24053 231.798 19.3012 242.859C30.3618 253.919 45.3579 260.141 61 260.16H232.68C248.322 260.141 263.318 253.919 274.379 242.859C285.439 231.798 291.661 216.802 291.68 201.16V61C291.661 45.3579 285.439 30.3618 274.379 19.3012C263.318 8.24053 248.322 2.01853 232.68 2H61Z" fill="#858CDD"/>
<path d="M121.72 161.71L88.72 128.71L77.72 139.71L121.72 183.71L215.92 89.4702L204.92 78.4702L121.72 161.71Z" fill="#FEF452"/>
</svg>
