<svg width="60" height="61" viewBox="0 0 60 61" fill="none" xmlns="http://www.w3.org/2000/svg">
<path fill-rule="evenodd" clip-rule="evenodd" d="M30 60.2852C46.5685 60.2852 60 46.8537 60 30.2852C60 13.7166 46.5685 0.285156 30 0.285156C13.4315 0.285156 0 13.7166 0 30.2852C0 46.8537 13.4315 60.2852 30 60.2852Z" fill="#F7F8FA"/>
<path fill-rule="evenodd" clip-rule="evenodd" d="M19.9941 22.3711V26.3864H39.9886V22.3711H19.9941ZM39.9886 38.4323H19.9941V34.417H39.9886V38.4323ZM23.9941 35.4219H21.9941V37.4295H23.9941V35.4219ZM21.9941 25.3787H23.9941V23.3711H21.9941V25.3787ZM19.9941 32.4093H39.9886V28.394H19.9941V32.4093ZM23.9941 29.3979H21.9941V31.4055H23.9941V29.3979Z" fill="#0F53FA"/>
</svg>
