<svg width="32" height="32" viewBox="0 0 32 32" fill="none" xmlns="http://www.w3.org/2000/svg">
<path d="M24.4586 11.6134C23.5159 11.6134 22.7533 12.3761 22.7533 13.3174V19.3574C22.7533 19.8097 22.9329 20.2435 23.2528 20.5633C23.5726 20.8831 24.0063 21.0628 24.4586 21.0628C24.9109 21.0628 25.3446 20.8831 25.6645 20.5633C25.9843 20.2435 26.1639 19.8097 26.1639 19.3574V13.3174C26.1639 12.3761 25.4013 11.6134 24.4586 11.6134ZM7.54127 11.6134C6.5986 11.6134 5.83594 12.3761 5.83594 13.3174V19.3574C5.83594 19.8097 6.01561 20.2435 6.33542 20.5633C6.65523 20.8831 7.08899 21.0628 7.54127 21.0628C7.99355 21.0628 8.42731 20.8831 8.74712 20.5633C9.06694 20.2435 9.2466 19.8097 9.2466 19.3574V13.3174C9.24678 13.0935 9.20278 12.8717 9.11713 12.6648C9.03147 12.4579 8.90584 12.2699 8.74743 12.1117C8.58903 11.9534 8.40095 11.8279 8.19398 11.7424C7.98701 11.6569 7.76521 11.6131 7.54127 11.6134ZM19.3933 6.53476L20.4173 4.6841C20.4472 4.63141 20.4664 4.5733 20.4736 4.51314C20.4809 4.45298 20.4762 4.39198 20.4597 4.33367C20.4432 4.27536 20.4153 4.22092 20.3775 4.1735C20.3398 4.12607 20.293 4.08662 20.2399 4.05743C20.187 4.02757 20.1286 4.00854 20.0683 4.00143C20.0079 3.99433 19.9467 3.9993 19.8883 4.01604C19.8298 4.03279 19.7753 4.06099 19.7279 4.099C19.6804 4.137 19.641 4.18406 19.6119 4.23743L18.5599 6.13076C17.7759 5.81743 16.9119 5.6401 15.9999 5.6401C15.0879 5.6401 14.2239 5.8161 13.4399 6.12943L12.3879 4.23876C12.3588 4.18539 12.3194 4.13833 12.272 4.10033C12.2246 4.06232 12.17 4.03413 12.1116 4.01738C12.0532 4.00063 11.992 3.99566 11.9316 4.00277C11.8712 4.00987 11.8129 4.02891 11.7599 4.05876C11.7071 4.08822 11.6606 4.1278 11.6231 4.17526C11.5855 4.22271 11.5577 4.2771 11.5413 4.33531C11.5248 4.39352 11.52 4.45441 11.5271 4.51449C11.5342 4.57456 11.553 4.63265 11.5826 4.68543L12.6066 6.5361C10.7626 7.58676 9.5306 9.46543 9.5306 11.6134C9.5306 11.6281 9.5306 11.6414 9.53327 11.6588C9.5306 11.6668 9.5306 11.6761 9.5306 11.6841V11.6854H22.4679V11.6134C22.4693 9.46543 21.2373 7.5881 19.3933 6.53476ZM13.0133 9.15876C12.9526 9.15833 12.8926 9.14594 12.8367 9.12232C12.7808 9.0987 12.7302 9.0643 12.6876 9.02109C12.6015 8.93382 12.5537 8.81596 12.5546 8.69343C12.5555 8.5709 12.605 8.45374 12.6923 8.36772C12.7795 8.28171 12.8974 8.23388 13.0199 8.23476C13.1425 8.23565 13.2596 8.28517 13.3456 8.37244C13.4317 8.4597 13.4795 8.57757 13.4786 8.7001C13.4777 8.82263 13.4282 8.93979 13.3409 9.0258C13.2537 9.11182 13.1358 9.15965 13.0133 9.15876ZM18.9866 9.15876C18.8703 9.14991 18.7616 9.09747 18.6824 9.01193C18.6031 8.92639 18.559 8.81406 18.559 8.69743C18.559 8.5808 18.6031 8.46847 18.6824 8.38293C18.7616 8.29739 18.8703 8.24494 18.9866 8.2361C19.109 8.2361 19.2263 8.2847 19.3128 8.37122C19.3993 8.45773 19.4479 8.57508 19.4479 8.69743C19.4479 8.81978 19.3993 8.93712 19.3128 9.02364C19.2263 9.11016 19.109 9.15876 18.9866 9.15876ZM9.5306 21.4934C9.5306 22.3548 10.2306 23.0548 11.0959 23.0548H11.8773V26.2561C11.8773 26.7084 12.0569 27.1421 12.3768 27.462C12.6966 27.7818 13.1303 27.9614 13.5826 27.9614C14.0349 27.9614 14.4686 27.7818 14.7885 27.462C15.1083 27.1421 15.2879 26.7084 15.2879 26.2561V23.0548H16.7093V26.2561C16.7093 27.1988 17.4719 27.9601 18.4119 27.9601C19.3573 27.9601 20.1199 27.1988 20.1199 26.2561V23.0548H20.9013C21.7653 23.0548 22.4666 22.3561 22.4666 21.4934V12.0374H9.5306V21.4934Z" fill="black"/>
</svg>
