<svg width="32" height="32" viewBox="0 0 32 32" fill="none" xmlns="http://www.w3.org/2000/svg">
<path d="M31.526 7.23992C31.536 7.28192 31.542 7.32892 31.542 7.36992V14.2399C31.5422 14.3276 31.5192 14.4138 31.4753 14.4897C31.4313 14.5655 31.3681 14.6284 31.292 14.6719L25.526 17.9949V24.5729C25.5262 24.6606 25.5032 24.7468 25.4593 24.8227C25.4153 24.8985 25.3521 24.9614 25.276 25.0049L13.24 31.9319C13.2119 31.9475 13.182 31.9596 13.151 31.9679L13.12 31.9839C13.0363 32.0049 12.9487 32.0049 12.865 31.9839C12.8523 31.9802 12.8402 31.9748 12.829 31.9679C12.8001 31.959 12.7722 31.9469 12.746 31.9319L0.714961 25.0049C0.638304 24.9616 0.574389 24.8989 0.529631 24.8231C0.484873 24.7472 0.460846 24.661 0.459961 24.5729V3.96392C0.459961 3.92192 0.469961 3.87492 0.480961 3.83392C0.485961 3.81792 0.490961 3.80792 0.496961 3.79192L0.527961 3.71392C0.532961 3.69792 0.548961 3.68792 0.558961 3.67192L0.605961 3.60892C0.622795 3.59853 0.638541 3.58647 0.652961 3.57292C0.673961 3.55692 0.688961 3.54192 0.709961 3.53092L6.72596 0.0669236C6.80204 0.0232343 6.88823 0.000244141 6.97596 0.000244141C7.06369 0.000244141 7.14988 0.0232343 7.22596 0.0669236L13.247 3.53092C13.268 3.54092 13.283 3.55692 13.299 3.57292L13.351 3.60892C13.3663 3.62897 13.3804 3.65002 13.393 3.67192C13.403 3.68192 13.419 3.69792 13.429 3.71392L13.46 3.79192C13.465 3.80792 13.476 3.81792 13.476 3.83392C13.4911 3.87554 13.4982 3.91965 13.497 3.96392V16.8339L18.507 13.9489V7.37092C18.5088 7.31183 18.5214 7.25356 18.544 7.19892L18.575 7.12092C18.585 7.09992 18.601 7.08992 18.611 7.07392C18.627 7.05292 18.637 7.03192 18.653 7.01692C18.669 7.00192 18.689 6.99092 18.705 6.98092C18.72 6.96427 18.7375 6.9501 18.757 6.93892L24.778 3.47492C24.8532 3.42877 24.9397 3.40433 25.028 3.40433C25.1162 3.40433 25.2027 3.42877 25.278 3.47492L31.294 6.93892C31.315 6.94892 31.33 6.96492 31.351 6.98092C31.367 6.99092 31.382 7.00192 31.398 7.01692C31.414 7.03192 31.429 7.05292 31.445 7.07392C31.455 7.08992 31.471 7.09992 31.476 7.12092C31.492 7.14692 31.497 7.17292 31.507 7.19892C31.517 7.20892 31.523 7.22492 31.528 7.24092L31.526 7.23992ZM30.536 13.9479V8.23992L28.432 9.44792L25.526 11.1249V16.8329L30.536 13.9479ZM24.526 24.2809V18.5669L21.661 20.1969L13.494 24.8639V30.6299L24.526 24.2809ZM1.45796 4.83292V24.2809L12.489 30.6299V24.8639L6.72296 21.5979C6.70196 21.5879 6.68696 21.5719 6.67096 21.5559C6.65496 21.5459 6.63496 21.5349 6.62396 21.5199H6.61896C6.60296 21.5039 6.59296 21.4839 6.57696 21.4679C6.56696 21.4519 6.55096 21.4369 6.54096 21.4159C6.52932 21.3963 6.52056 21.3751 6.51496 21.3529C6.50496 21.3319 6.49396 21.3169 6.48896 21.2959C6.48396 21.2749 6.47896 21.2489 6.47896 21.2229C6.47396 21.2019 6.46896 21.1869 6.46896 21.1659V7.71792L3.56296 6.04092L1.45796 4.83292ZM6.97396 1.07792L1.96396 3.96292L6.97396 6.84792L11.984 3.96292L6.97396 1.07792ZM9.58296 19.0889L12.489 17.4119V4.83392L10.385 6.04192L7.47396 7.71892V20.2969L9.58296 19.0889ZM25.026 4.48392L20.01 7.36892L25.026 10.2539L30.036 7.36892L25.026 4.48392ZM24.526 11.1249L19.51 8.23992V13.9479L22.416 15.6249L24.525 16.8329L24.526 11.1249ZM12.99 23.9949L24.016 17.7029L19.011 14.8179L7.98996 21.1619L12.99 23.9949Z" fill="black"/>
</svg>
