<svg width="32" height="32" viewBox="0 0 32 32" fill="none" xmlns="http://www.w3.org/2000/svg">
<path d="M5.90227 27.201L3.65527 2H28.3453L26.0953 27.197L15.9853 30L5.90227 27.201Z" fill="#E44F26"/>
<path d="M16 27.858L24.17 25.593L26.092 4.06104H16V27.858Z" fill="#F1662A"/>
<path d="M16 13.4071H11.91L11.628 10.2421H16V7.15112H8.25L8.324 7.98112L9.083 16.4981H16V13.4071Z" fill="#EBEBEB"/>
<path d="M15.9997 21.4339L15.9857 21.4379L12.5437 20.5089L12.3237 18.0439H9.2207L9.6537 22.8959L15.9857 24.6539L15.9997 24.6499V21.4339Z" fill="#EBEBEB"/>
<path d="M15.9893 13.407V16.498H19.7953L19.4373 20.507L15.9893 21.437V24.653L22.3263 22.896L22.3723 22.374L23.0983 14.237L23.1743 13.407H15.9893Z" fill="white"/>
<path d="M15.9893 7.15112V10.2421H23.4553L23.5173 9.54812L23.6583 7.98112L23.7323 7.15112H15.9893Z" fill="white"/>
</svg>
