<svg width="32" height="32" viewBox="0 0 32 32" fill="none" xmlns="http://www.w3.org/2000/svg">
<path d="M2.86665 22.3734H4.95999C5.0052 22.3739 5.04905 22.3579 5.08338 22.3285C5.11771 22.2991 5.1402 22.2582 5.14665 22.2134L5.61332 19.7868H7.23999C7.92092 19.8038 8.6003 19.7138 9.25332 19.5201C9.7824 19.3451 10.2654 19.0535 10.6667 18.6668C11.027 18.3428 11.3292 17.9595 11.56 17.5334C11.7883 17.1166 11.9502 16.6668 12.04 16.2001C12.1816 15.7109 12.206 15.1951 12.111 14.6947C12.016 14.1943 11.8044 13.7234 11.4933 13.3201C11.1329 12.9538 10.6966 12.671 10.2152 12.4913C9.73382 12.3116 9.2189 12.2395 8.70665 12.2801H4.70665C4.65867 12.2822 4.61282 12.3005 4.57653 12.332C4.54023 12.3634 4.51561 12.4062 4.50665 12.4534L2.66665 22.1334C2.64627 22.1894 2.64627 22.2508 2.66665 22.3068C2.6921 22.3332 2.72359 22.3531 2.75843 22.3648C2.79327 22.3764 2.83041 22.3793 2.86665 22.3734ZM6.66665 14.1601H7.99999C8.25366 14.126 8.51157 14.1426 8.75876 14.209C9.00595 14.2754 9.23751 14.3902 9.43999 14.5468C9.66665 14.7868 9.70665 15.2401 9.58665 15.8801C9.5198 16.4527 9.25021 16.9824 8.82665 17.3734C8.29858 17.7078 7.67644 17.8621 7.05332 17.8134H5.98665L6.66665 14.1601ZM19.7333 12.8934C19.0115 12.3627 18.1177 12.1203 17.2267 12.2134H15.64L16.08 9.86675C16.093 9.83971 16.0997 9.81009 16.0997 9.78009C16.0997 9.75008 16.093 9.72046 16.08 9.69342C16.0326 9.67609 15.9807 9.67609 15.9333 9.69342H13.84C13.7948 9.69296 13.7509 9.70892 13.7166 9.73835C13.6823 9.76778 13.6598 9.80867 13.6533 9.85342L11.8133 19.5468C11.8005 19.5715 11.7938 19.5989 11.7938 19.6268C11.7938 19.6546 11.8005 19.682 11.8133 19.7068C11.829 19.7314 11.8507 19.7516 11.8764 19.7656C11.902 19.7796 11.9308 19.7869 11.96 19.7868H14.0133C14.0606 19.7869 14.1062 19.769 14.1408 19.7369C14.1755 19.7047 14.1966 19.6606 14.2 19.6134L15.2267 14.1868H16.7067C17.3067 14.1868 17.52 14.3201 17.5867 14.4001C17.6409 14.5311 17.6689 14.6716 17.6689 14.8134C17.6689 14.9553 17.6409 15.0957 17.5867 15.2268L16.7733 19.5468C16.7605 19.5715 16.7538 19.5989 16.7538 19.6268C16.7538 19.6546 16.7605 19.682 16.7733 19.7068C16.7899 19.7306 16.8117 19.7502 16.8372 19.7641C16.8627 19.778 16.891 19.7857 16.92 19.7868H19C19.048 19.7846 19.0938 19.7663 19.1301 19.7348C19.1664 19.7034 19.191 19.6606 19.2 19.6134L20.0533 15.0801C20.191 14.7186 20.2339 14.3279 20.1779 13.9451C20.1219 13.5624 19.9688 13.2003 19.7333 12.8934ZM25.76 12.2134H21.5867C21.5621 12.2116 21.5375 12.2147 21.5141 12.2224C21.4908 12.2301 21.4692 12.2424 21.4506 12.2585C21.432 12.2746 21.4168 12.2942 21.4058 12.3163C21.3949 12.3383 21.3883 12.3622 21.3867 12.3868L19.44 22.1334C19.4279 22.1607 19.4216 22.1902 19.4216 22.2201C19.4216 22.2499 19.4279 22.2795 19.44 22.3068C19.4579 22.3281 19.4804 22.3452 19.5058 22.3567C19.5311 22.3683 19.5588 22.374 19.5867 22.3734H21.76C21.8074 22.3773 21.8546 22.3629 21.8918 22.3331C21.9289 22.3034 21.9533 22.2606 21.96 22.2134L22.4533 19.7868H24.1467C24.8494 19.8022 25.5505 19.7123 26.2267 19.5201C26.8088 19.3581 27.3467 19.0664 27.8 18.6668C28.1722 18.3437 28.4877 17.9607 28.7333 17.5334C28.9659 17.1172 29.1323 16.6674 29.2267 16.2001C29.372 15.7104 29.397 15.1929 29.2995 14.6915C29.202 14.1901 28.9849 13.7196 28.6667 13.3201C28.2897 12.9382 27.8351 12.6418 27.3336 12.4509C26.8321 12.26 26.2955 12.179 25.76 12.2134ZM26.5867 15.9068C26.5069 16.4841 26.2231 17.0138 25.7867 17.4001C25.2395 17.736 24.6001 17.89 23.96 17.8401H22.8933L23.6133 14.1601H24.9467C25.4796 14.0948 26.0177 14.2328 26.4533 14.5468C26.6667 14.7868 26.6667 15.2401 26.5867 15.9068Z" fill="black"/>
</svg>
