<svg width="32" height="32" viewBox="0 0 32 32" fill="none" xmlns="http://www.w3.org/2000/svg">
<path d="M29.656 2.344C31.161 3.849 31.9424 5.73425 31.9995 7.99988V24C31.9424 26.265 31.1611 28.1509 29.656 29.6559C28.151 31.1609 26.2651 31.9422 23.9996 31.9999H7.99988C5.73425 31.9424 3.849 31.161 2.344 29.6559C0.839 28.151 0.0575 26.2651 0 24.0001V8C0.0575 5.73438 0.838875 3.84912 2.344 2.34413C3.849 0.839 5.73425 0.0575 7.99988 0H23.9996C26.2651 0.0575 28.151 0.838875 29.656 2.344ZM27.4491 15.219C26.9463 14.7188 26.6849 14.091 26.6641 13.3357V8C26.6481 7.24475 26.3889 6.616 25.8865 6.11363C25.384 5.61075 24.7547 5.352 23.9996 5.33612H21.3356V18.6644L10.6644 5.33588H7.99988C7.24463 5.35187 6.61588 5.61063 6.1135 6.1135C5.61063 6.616 5.35187 7.24475 5.336 7.99975V13.3357C5.31512 14.091 5.05375 14.7188 4.55088 15.219C4.04838 15.7186 3.41963 15.979 2.6645 15.9998C3.41963 16.021 4.0485 16.2814 4.55075 16.781C5.05375 17.2812 5.31512 17.909 5.33588 18.6642V24C5.35187 24.7546 5.61063 25.384 6.1135 25.8864C6.616 26.3889 7.24475 26.648 7.99975 26.6639H10.6644V13.3359L21.3356 26.6642H23.9996C24.7547 26.6482 25.3841 26.389 25.8865 25.8866C26.389 25.3841 26.6481 24.7549 26.664 24.0004V18.6644C26.6849 17.9091 26.9463 17.2814 27.4491 16.7811C27.9516 16.2815 28.5804 16.0211 29.3355 15.9999C28.5804 15.979 27.9515 15.7188 27.4492 15.2191L27.4491 15.219Z" fill="#3C5AFD"/>
</svg>
