<svg width="32" height="32" viewBox="0 0 32 32" fill="none" xmlns="http://www.w3.org/2000/svg">
<path d="M15.8649 0.0090332C7.76093 0.0090332 8.26693 3.53719 8.26693 3.53719L8.27593 7.19247H16.0094V8.28988H5.2043C5.2043 8.28988 0.0185547 7.69945 0.0185547 15.9084C0.0185547 24.1176 4.5448 23.8264 4.5448 23.8264H7.24605V20.0171C7.24605 20.0171 7.10043 15.4731 11.7001 15.4731H19.3703C19.3703 15.4731 23.6797 15.543 23.6797 11.2919V4.2629C23.6797 4.2629 24.3342 0.0090332 15.8649 0.0090332ZM11.6007 2.46714C11.7834 2.46697 11.9644 2.50298 12.1333 2.57312C12.3022 2.64325 12.4556 2.74612 12.5848 2.87585C12.714 3.00558 12.8165 3.15962 12.8864 3.32915C12.9562 3.49868 12.9921 3.68038 12.9919 3.86384C12.9921 4.04731 12.9562 4.229 12.8864 4.39853C12.8165 4.56806 12.714 4.7221 12.5848 4.85183C12.4556 4.98156 12.3022 5.08443 12.1333 5.15457C11.9644 5.2247 11.7834 5.26071 11.6007 5.26055C11.4179 5.26071 11.2369 5.2247 11.0681 5.15457C10.8992 5.08443 10.7458 4.98156 10.6166 4.85183C10.4873 4.7221 10.3849 4.56806 10.315 4.39853C10.2451 4.229 10.2093 4.04731 10.2094 3.86384C10.2093 3.68038 10.2451 3.49868 10.315 3.32915C10.3849 3.15962 10.4873 3.00558 10.6166 2.87585C10.7458 2.74612 10.8992 2.64325 11.0681 2.57312C11.2369 2.50298 11.4179 2.46697 11.6007 2.46714Z" fill="url(#paint0_linear)"/>
<path d="M16.0952 31.8905C24.1992 31.8905 23.6932 28.3623 23.6932 28.3623L23.6842 24.7072H15.9505V23.6097H26.7557C26.7557 23.6097 31.9414 24.2002 31.9414 15.991C31.9414 7.78192 27.4152 8.07305 27.4152 8.07305H24.7139V11.8823C24.7139 11.8823 24.8595 16.4263 20.2599 16.4263H12.5897C12.5897 16.4263 8.28028 16.3564 8.28028 20.6076V27.6367C8.28028 27.6367 7.6259 31.8905 16.095 31.8905H16.0952ZM20.3594 29.4326C20.1767 29.4328 19.9957 29.3968 19.8268 29.3266C19.6579 29.2565 19.5045 29.1536 19.3753 29.0239C19.2461 28.8942 19.1436 28.7401 19.0737 28.5706C19.0039 28.4011 18.968 28.2194 18.9682 28.0359C18.968 27.8524 19.0038 27.6707 19.0737 27.5012C19.1435 27.3316 19.246 27.1776 19.3752 27.0478C19.5045 26.9181 19.6579 26.8152 19.8268 26.7451C19.9956 26.6749 20.1766 26.6389 20.3594 26.6391C20.5422 26.6389 20.7231 26.6749 20.892 26.7451C21.0609 26.8152 21.2143 26.9181 21.3435 27.0478C21.4728 27.1775 21.5752 27.3316 21.6451 27.5011C21.7149 27.6706 21.7508 27.8523 21.7507 28.0358C21.7508 28.2192 21.7149 28.4009 21.6451 28.5705C21.5752 28.74 21.4728 28.894 21.3435 29.0238C21.2143 29.1535 21.0609 29.2564 20.892 29.3265C20.7231 29.3966 20.5422 29.4327 20.3594 29.4325V29.4326Z" fill="url(#paint1_linear)"/>
<defs>
<linearGradient id="paint0_linear" x1="3.08632" y1="2.87656" x2="18.9676" y2="18.538" gradientUnits="userSpaceOnUse">
<stop stop-color="#387EB8"/>
<stop offset="1" stop-color="#366994"/>
</linearGradient>
<linearGradient id="paint1_linear" x1="12.7967" y1="12.9734" x2="29.8482" y2="29.0298" gradientUnits="userSpaceOnUse">
<stop stop-color="#FFE052"/>
<stop offset="1" stop-color="#FFC331"/>
</linearGradient>
</defs>
</svg>
