<svg width="32" height="32" viewBox="0 0 32 32" fill="none" xmlns="http://www.w3.org/2000/svg">
<path d="M27.9719 6.28392C27.9468 6.12392 27.7869 6.03537 27.6548 6.02561C27.5229 6.01597 24.7319 5.8346 24.7319 5.8346C24.7319 5.8346 22.7935 4.14748 22.5808 3.96074C22.3679 3.77411 21.9521 3.83087 21.7908 3.87252C21.767 3.87865 21.3673 3.98682 20.706 4.16622C20.0585 2.53268 18.9158 1.03153 16.9054 1.03153C16.8499 1.03153 16.7928 1.0335 16.7356 1.03635C16.1639 0.373449 15.4556 0.0854492 14.8439 0.0854492C10.1608 0.0854492 7.92338 5.21805 7.22188 7.82627C5.40213 8.32063 4.10938 8.67208 3.94426 8.71756C2.92851 8.9969 2.89638 9.02496 2.76301 9.86408C2.66263 10.4994 0.00488281 28.519 0.00488281 28.519L20.7146 31.9209L31.9359 29.7926C31.9359 29.7926 27.9968 6.44392 27.972 6.28392H27.9719ZM19.5614 4.47657L17.809 4.95208C17.8096 4.84381 17.8103 4.73729 17.8103 4.62079C17.8103 3.60556 17.6495 2.78813 17.3916 2.14013C18.4275 2.25411 19.1174 3.28742 19.5614 4.47657ZM16.1066 2.34145C16.3946 2.97411 16.5819 3.88205 16.5819 5.10726C16.5819 5.16994 16.5813 5.22726 16.5806 5.28523C15.441 5.59471 14.2026 5.93071 12.9615 6.26781C13.6584 3.90989 14.9646 2.77104 16.1066 2.34145ZM14.7153 1.18671C14.9174 1.18671 15.121 1.24687 15.3159 1.36446C13.815 1.98364 12.2063 3.54309 11.5269 6.65729L8.66613 7.43405C9.46188 5.05871 11.3514 1.18671 14.7151 1.18671H14.7153Z" fill="#95BF46"/>
<path d="M27.6549 6.02565C27.5231 6.016 24.7321 5.83463 24.7321 5.83463C24.7321 5.83463 22.7937 4.14751 22.5809 3.96077C22.5013 3.89129 22.3939 3.85567 22.2817 3.84033L20.7158 31.9207L31.9361 29.7927C31.9361 29.7927 27.9968 6.44395 27.9721 6.28395C27.9469 6.12395 27.7871 6.0354 27.6549 6.02565Z" fill="#5E8E3E"/>
<path d="M16.905 11.4612L15.5213 15.0696C15.5213 15.0696 14.3091 14.5023 12.8231 14.5023C10.6446 14.5023 10.535 15.7009 10.535 16.0029C10.535 17.6509 15.435 18.2824 15.435 22.1426C15.435 25.1796 13.2378 27.1352 10.2753 27.1352C6.72034 27.1352 4.90234 25.1955 4.90234 25.1955L5.85422 22.4382C5.85422 22.4382 7.72297 23.8448 9.29985 23.8448C10.3302 23.8448 10.7493 23.1336 10.7493 22.6139C10.7493 20.4642 6.72934 20.3683 6.72934 16.8359C6.72934 13.8629 9.16334 10.9858 14.0766 10.9858C15.9697 10.9858 16.905 11.4612 16.905 11.4612Z" fill="white"/>
</svg>
