<svg width="32" height="32" viewBox="0 0 32 32" fill="none" xmlns="http://www.w3.org/2000/svg">
<path d="M26.3104 10.3615C25.9698 10.2303 25.6264 10.1088 25.2804 9.99699C25.3385 9.73032 25.392 9.46689 25.4395 9.20808C26.2193 4.95811 25.7095 1.53425 23.9684 0.406957C22.299 -0.673745 19.5689 0.453132 16.8116 3.14745C16.5399 3.41346 16.2742 3.68714 16.0147 3.96822C15.8411 3.78131 15.6643 3.59803 15.4846 3.41847C12.5949 0.537623 9.69837 -0.676552 7.95913 0.453974C6.29125 1.53804 5.79737 4.75671 6.49937 8.7845C6.56922 9.18341 6.64808 9.58026 6.73588 9.97468C6.32588 10.1055 5.93025 10.2447 5.55162 10.3929C2.16362 11.7192 0 13.7977 0 15.9536C0 18.1803 2.32275 20.4137 5.8515 21.7679C6.13758 21.8773 6.42605 21.9786 6.71663 22.0718C6.62225 22.4966 6.53847 22.9243 6.46537 23.3543C5.79612 27.3122 6.31875 30.4548 7.98212 31.532C9.70012 32.6444 12.5836 31.5011 15.3912 28.7453C15.6189 28.5213 15.8416 28.2909 16.059 28.0544C16.3399 28.3588 16.6284 28.6543 16.924 28.9406C19.6437 31.5682 22.3298 32.6293 23.9915 31.5491C25.7079 30.4335 26.2658 27.0575 25.5415 22.9501C25.4844 22.6283 25.4205 22.3081 25.3496 21.9898C25.5521 21.9225 25.7509 21.8531 25.9446 21.781C29.6131 20.4164 32 18.21 32 15.9536C32 13.7898 29.7665 11.6973 26.3104 10.3615ZM25.5147 20.3242C25.3398 20.3891 25.1602 20.4519 24.9772 20.5129C24.5722 19.0733 24.0257 17.5427 23.3569 15.9611C23.9951 14.4172 24.5206 12.906 24.9142 11.4759C25.2416 11.5823 25.5592 11.6944 25.8655 11.8127C28.8267 12.9574 30.633 14.6496 30.633 15.9536C30.633 17.3425 28.6822 19.1456 25.5147 20.3242ZM24.2005 23.2482C24.5208 25.0644 24.5664 26.7065 24.3542 27.9903C24.1637 29.1438 23.7805 29.9128 23.3065 30.2209C22.2981 30.8763 20.1415 30.0244 17.8156 27.7771C17.5407 27.5109 17.2724 27.2361 17.011 26.9532C17.9128 25.846 18.8139 24.5588 19.6934 23.1292C21.2404 22.9751 22.7019 22.723 24.0273 22.379C24.0925 22.6747 24.1505 22.9647 24.2005 23.2482ZM10.9095 30.1076C9.92425 30.4982 9.1395 30.5094 8.66512 30.2023C7.65575 29.5487 7.23612 27.0253 7.8085 23.6406C7.87654 23.2407 7.95444 22.8429 8.04212 22.4478C9.35287 22.7734 10.8038 23.0075 12.3544 23.1487C13.2399 24.5476 14.167 25.8333 15.1014 26.9592C14.9028 27.175 14.6995 27.3852 14.4917 27.5897C13.2501 28.8082 12.006 29.6728 10.9095 30.1076ZM6.29375 20.3156C4.73337 19.7167 3.44475 18.9385 2.5615 18.0892C1.76775 17.3261 1.36713 16.5684 1.36713 15.9536C1.36713 14.6453 3.10425 12.9765 6.00163 11.8423C6.35325 11.7048 6.72125 11.575 7.10313 11.4531C7.50362 12.9156 8.02888 14.4447 8.66275 15.991C8.02063 17.5601 7.48787 19.1136 7.0835 20.5933C6.81826 20.508 6.55493 20.4154 6.29375 20.3156ZM7.841 8.48962C7.23962 5.03882 7.639 2.43573 8.64412 1.7824C9.71463 1.08654 12.0819 2.07868 14.577 4.56625C14.7397 4.72883 14.8998 4.89471 15.0571 5.0638C14.1274 6.18478 13.2087 7.46099 12.3311 8.85159C10.8261 9.00822 9.3855 9.25973 8.061 9.59671C7.9794 9.22986 7.90604 8.86076 7.841 8.48976V8.48962ZM21.6444 12.3167C21.3315 11.71 21.0071 11.1109 20.6712 10.5198C21.6922 10.6648 22.6705 10.8572 23.5891 11.0924C23.3134 12.085 22.9696 13.1226 22.565 14.1865C22.2692 13.5564 21.9623 12.933 21.6444 12.3167ZM16.0154 6.16078C16.6459 6.9278 17.2774 7.78408 17.8985 8.7132C16.6385 8.64639 15.3764 8.64611 14.1164 8.71236C14.7381 7.7918 15.375 6.93664 16.0154 6.16078ZM10.3503 12.3272C10.0363 12.9386 9.73509 13.5581 9.44687 14.1852C9.04887 13.1251 8.70825 12.0827 8.43013 11.0761C9.34313 10.8468 10.3168 10.6593 11.3313 10.517C10.9917 11.1117 10.6646 11.7152 10.3503 12.3271V12.3272ZM11.3604 21.4995C10.3123 21.3681 9.324 21.1903 8.41125 20.9671C8.69375 19.9425 9.04187 18.878 9.4485 17.7952C9.73785 18.4228 10.0403 19.0426 10.3556 19.6543C10.6799 20.283 11.0156 20.8989 11.3604 21.4995ZM16.0531 25.8545C15.4051 25.0697 14.7589 24.2013 14.1278 23.2675C14.7405 23.2944 15.3651 23.3082 16 23.3082C16.6523 23.3082 17.297 23.2917 17.9316 23.26C17.3085 24.2107 16.6794 25.0804 16.0531 25.8545ZM22.5779 17.7399C23.0056 18.8346 23.3661 19.8936 23.6524 20.9006C22.7246 21.1383 21.7229 21.3298 20.6674 21.4719C21.0056 20.8699 21.3331 20.2604 21.6497 19.6437C21.9717 19.0169 22.2811 18.3821 22.5779 17.7399ZM20.4656 18.8769C19.9809 19.8223 19.4689 20.7498 18.9305 21.6579C17.9552 21.7355 16.9777 21.774 16 21.7734C15.0041 21.7734 14.0355 21.7386 13.1027 21.6707C12.5503 20.7647 12.0285 19.8356 11.5386 18.8853H11.5387C11.0511 17.94 10.5957 16.9743 10.1734 15.9903C10.5946 15.006 11.0487 14.0398 11.5346 13.0938L11.5345 13.094C12.0202 12.1478 12.5378 11.2226 13.0861 10.3205C14.0378 10.2397 15.0136 10.1976 15.9999 10.1976H16C16.9907 10.1976 17.9679 10.2401 18.9193 10.3215C19.462 11.2222 19.9763 12.1442 20.4611 13.0857C20.9487 14.0296 21.4088 14.991 21.8406 15.9685C21.4132 16.956 20.9546 17.926 20.4656 18.8769ZM23.2856 1.73664C24.3571 2.43054 24.7739 5.22871 24.1006 8.89818C24.0576 9.13229 24.0094 9.37075 23.9569 9.61257C22.6291 9.26843 21.1875 9.01257 19.6781 8.85355C18.7989 7.44766 17.8878 6.16948 16.9731 5.06296C17.2128 4.80352 17.4582 4.55081 17.7091 4.30506C20.0716 1.99671 22.2796 1.08527 23.2856 1.73664ZM16 12.7452C17.5781 12.7452 18.8575 14.1817 18.8575 15.9536C18.8575 17.7256 17.5781 19.162 16 19.162C14.4219 19.162 13.1425 17.7256 13.1425 15.9536C13.1425 14.1817 14.4219 12.7452 16 12.7452Z" fill="#00D8FF"/>
</svg>
