<svg width="32" height="32" viewBox="0 0 32 32" fill="none" xmlns="http://www.w3.org/2000/svg">
<g clip-path="url(#clip0)">
<path d="M16.1379 -0.000708461C9.84018 -0.0116205 3.91262 3.70528 1.19226 9.58871L8.8414 9.60683V10.4395C6.48604 10.1574 6.69345 11.3748 7.02688 12.6669L12.0482 25.1926L15.7389 16.5817L14.0446 12.5462C13.4292 11.4654 13.4162 10.2662 10.8984 10.3791L10.9338 9.61185L22.1524 9.63902V10.4988C20.8386 10.5755 19.257 10.1701 20.0954 12.8479L24.6327 24.711L27.1131 17.7854C27.9253 14.8822 27.1609 12.0923 26.1957 9.35643C25.6589 7.52106 25.9093 5.98829 28.3154 5.38026C24.6427 1.64889 20.3092 0.00652355 16.138 -0.000708461H16.1379ZM31.3957 10.9513L24.1224 29.8214C26.131 28.0899 28.1905 27.4596 30.7107 22.6685C32.3875 18.6835 32.2149 14.9918 31.3957 10.9513V10.9513ZM0.422394 11.257C-0.287514 16.8277 -0.222571 18.4594 1.53476 23.0085C3.82546 27.3654 5.60182 28.2834 8.12304 29.9924L0.422362 11.257H0.422394ZM16.4218 18.3254L11.0318 31.2694C14.8152 32.3443 18.2005 32.2098 21.2996 31.014L16.4218 18.3253V18.3254Z" fill="black"/>
</g>
<defs>
<clipPath id="clip0">
<rect width="32" height="32" fill="white"/>
</clipPath>
</defs>
</svg>
