<svg width="100" height="30" viewBox="0 0 100 30" fill="none" xmlns="http://www.w3.org/2000/svg">
<g clip-path="url(#clip0)">
<path d="M18.1861 2.72667L17.4359 2.21296C17.4223 2.20374 17.4069 2.19763 17.3908 2.19503C17.3748 2.19243 17.3584 2.1934 17.3427 2.19788L14.5142 3.02423L11.6935 2.20492C11.6779 2.20045 11.6615 2.19948 11.6455 2.20208C11.6296 2.20468 11.6143 2.21079 11.6008 2.22L10.8569 2.72918C10.8345 2.74459 10.8188 2.76839 10.813 2.79557C10.8072 2.82276 10.8118 2.85121 10.8258 2.87495L13.9625 8.12359C13.9717 8.13983 13.9847 8.15341 14.0003 8.16308C14.0159 8.17274 14.0336 8.17817 14.0518 8.17888H14.9859C15.0042 8.17892 15.0222 8.17408 15.0381 8.16484C15.0541 8.1556 15.0675 8.14226 15.0771 8.1261L18.2152 2.87545C18.2303 2.8517 18.2357 2.82271 18.2303 2.79483C18.2248 2.76694 18.2089 2.74243 18.1861 2.72667ZM14.5093 6.86898L12.5523 3.63093C12.551 3.62837 12.5503 3.62545 12.5505 3.62253C12.5507 3.6196 12.5517 3.61678 12.5534 3.61444C12.5551 3.61209 12.5574 3.61031 12.5601 3.60931C12.5627 3.60831 12.5656 3.60813 12.5684 3.60881L14.3152 4.11699C14.4512 4.15644 14.5951 4.15644 14.7311 4.11699L16.4707 3.60881C16.4735 3.60813 16.4764 3.60831 16.479 3.60931C16.4817 3.61031 16.484 3.61209 16.4857 3.61444C16.4874 3.61678 16.4884 3.6196 16.4886 3.62253C16.4888 3.62545 16.4881 3.62837 16.4867 3.63093L14.5317 6.86948C14.5303 6.87123 14.5286 6.87262 14.5266 6.87357C14.5247 6.87451 14.5225 6.87498 14.5204 6.87493C14.5182 6.87488 14.5161 6.87432 14.5142 6.87329C14.5123 6.87226 14.5106 6.87078 14.5093 6.86898Z" fill="#5FABD3"/>
<path d="M14.5219 1.64768C14.9611 1.64768 15.3172 1.27883 15.3172 0.823839C15.3172 0.368845 14.9611 0 14.5219 0C14.0826 0 13.7266 0.368845 13.7266 0.823839C13.7266 1.27883 14.0826 1.64768 14.5219 1.64768Z" fill="#5FABD3"/>
<path d="M18.1351 27.1291L14.997 21.8765C14.9871 21.8608 14.9735 21.848 14.9576 21.8393C14.9416 21.8305 14.9238 21.826 14.9058 21.8262H13.9722C13.954 21.8258 13.9361 21.8303 13.92 21.8391C13.904 21.8479 13.8904 21.8607 13.8804 21.8765L10.7438 27.1251C10.7298 27.1488 10.7252 27.1773 10.731 27.2045C10.7367 27.2316 10.7525 27.2554 10.7749 27.2709L11.5187 27.7825C11.5323 27.7918 11.5475 27.7979 11.5635 27.8005C11.5795 27.8031 11.5958 27.8021 11.6114 27.7976L14.4322 26.9783L17.2612 27.8047C17.2768 27.8091 17.2931 27.8101 17.3091 27.8075C17.3251 27.8049 17.3403 27.7988 17.3538 27.7896L18.104 27.2759C18.1267 27.2605 18.1426 27.2365 18.1484 27.209C18.1542 27.1816 18.1494 27.1529 18.1351 27.1291ZM14.4516 23.1321L16.4066 26.3711C16.408 26.3737 16.4087 26.3766 16.4085 26.3795C16.4083 26.3824 16.4073 26.3853 16.4056 26.3876C16.4039 26.39 16.4016 26.3917 16.3989 26.3927C16.3963 26.3937 16.3934 26.3939 16.3906 26.3932L14.651 25.8851C14.515 25.8453 14.3711 25.8453 14.2352 25.8851L12.4883 26.3932C12.4855 26.3939 12.4826 26.3937 12.48 26.3927C12.4773 26.3917 12.475 26.39 12.4733 26.3876C12.4716 26.3853 12.4706 26.3824 12.4704 26.3795C12.4702 26.3766 12.4709 26.3737 12.4723 26.3711L14.4293 23.1326C14.4305 23.1307 14.4321 23.1292 14.4339 23.1281C14.4358 23.127 14.4378 23.1263 14.44 23.1261C14.4421 23.1259 14.4442 23.1262 14.4462 23.127C14.4483 23.1278 14.4501 23.129 14.4516 23.1306V23.1321Z" fill="#5FABD3"/>
<path d="M14.4399 30.0002C14.8791 30.0002 15.2352 29.6314 15.2352 29.1764C15.2352 28.7214 14.8791 28.3525 14.4399 28.3525C14.0006 28.3525 13.6445 28.7214 13.6445 29.1764C13.6445 29.6314 14.0006 30.0002 14.4399 30.0002Z" fill="#5FABD3"/>
<path d="M8.7231 3.60459L7.84092 3.79309C7.82506 3.79659 7.8101 3.80356 7.79705 3.81353C7.784 3.8235 7.77315 3.83623 7.76522 3.85089L6.32889 6.50688L3.77504 7.99371C3.76088 8.00184 3.7486 8.01307 3.73905 8.02661C3.7295 8.04015 3.7229 8.05568 3.71973 8.07212L3.54116 8.97689C3.53577 9.00418 3.54087 9.03257 3.55537 9.05603C3.56986 9.07949 3.59261 9.09618 3.61879 9.10255L9.41991 10.517C9.43771 10.5212 9.45625 10.5207 9.47382 10.5156C9.49138 10.5104 9.50739 10.5007 9.52036 10.4873L9.64652 10.3562L10.0532 9.93493L10.1803 9.80274C10.1933 9.78938 10.2027 9.77281 10.2077 9.75459C10.2127 9.73637 10.2132 9.71712 10.2089 9.69869L8.84344 3.68703C8.8376 3.65981 8.82179 3.63601 8.79934 3.62063C8.77689 3.60525 8.74956 3.5995 8.7231 3.60459ZM8.95116 9.2272L5.35646 8.3727C5.35365 8.37204 5.3511 8.37051 5.34916 8.3683C5.34722 8.36609 5.34598 8.36332 5.34561 8.36036C5.34524 8.3574 5.34576 8.35439 5.34709 8.35175C5.34842 8.3491 5.35051 8.34694 5.35306 8.34556L6.93642 7.42471C7.05948 7.35311 7.16107 7.2477 7.22999 7.12011L8.11314 5.4865C8.11457 5.48391 8.11671 5.48182 8.11929 5.48049C8.12186 5.47916 8.12476 5.47865 8.12762 5.47902C8.13048 5.4794 8.13316 5.48065 8.13534 5.4826C8.13751 5.48456 8.13907 5.48714 8.13983 5.49002L8.96815 9.21263C8.96852 9.21498 8.96833 9.2174 8.96759 9.21966C8.96685 9.22192 8.96559 9.22396 8.96391 9.2256C8.96224 9.22724 8.9602 9.22843 8.95797 9.22906C8.95575 9.22969 8.95341 9.22974 8.95116 9.22921V9.2272Z" fill="#FF5758"/>
<path d="M4.83243 5.76926C5.27167 5.76926 5.62775 5.40042 5.62775 4.94542C5.62775 4.49043 5.27167 4.12158 4.83243 4.12158C4.39319 4.12158 4.03711 4.49043 4.03711 4.94542C4.03711 5.40042 4.39319 5.76926 4.83243 5.76926Z" fill="#FF5758"/>
<path d="M25.3434 20.8978L19.5403 19.4833C19.5225 19.4788 19.5038 19.4792 19.4861 19.4844C19.4684 19.4896 19.4523 19.4995 19.4394 19.513L19.3123 19.6447L18.9047 20.0654L18.7785 20.1966C18.7656 20.21 18.7562 20.2266 18.7512 20.2448C18.7462 20.263 18.7457 20.2822 18.7499 20.3006L20.1178 26.3098C20.1239 26.3369 20.14 26.3605 20.1627 26.3755C20.1853 26.3905 20.2127 26.3958 20.2391 26.3902L21.1125 26.2052C21.1278 26.2014 21.1422 26.1944 21.1548 26.1845C21.1673 26.1747 21.1777 26.1622 21.1853 26.1479L22.6207 23.5025L25.1847 22.0147C25.1989 22.0064 25.2112 21.9952 25.2208 21.9817C25.2304 21.9682 25.2371 21.9527 25.2405 21.9362L25.4201 21.0234C25.4255 20.9963 25.4205 20.968 25.4062 20.9446C25.3919 20.9211 25.3694 20.9044 25.3434 20.8978ZM20.0105 20.7696L23.6038 21.6276C23.6066 21.6282 23.6092 21.6297 23.6112 21.6319C23.6132 21.634 23.6145 21.6368 23.6149 21.6398C23.6154 21.6427 23.6149 21.6458 23.6136 21.6485C23.6123 21.6511 23.6102 21.6533 23.6077 21.6548L22.0306 22.5701C21.9077 22.6406 21.8059 22.745 21.7366 22.8717L20.8456 24.5143C20.8443 24.517 20.8422 24.5191 20.8396 24.5205C20.837 24.5218 20.834 24.5223 20.8312 24.5219C20.8283 24.5214 20.8256 24.5201 20.8235 24.518C20.8214 24.5159 20.82 24.5132 20.8194 24.5103L19.9945 20.7872C19.994 20.7849 19.9941 20.7824 19.9947 20.7801C19.9953 20.7778 19.9964 20.7757 19.998 20.774C19.9996 20.7722 20.0016 20.7709 20.0037 20.7702C20.0059 20.7694 20.0083 20.7692 20.0105 20.7696Z" fill="#FF5758"/>
<path d="M24.1283 25.8769C24.5676 25.8769 24.9236 25.5081 24.9236 25.0531C24.9236 24.5981 24.5676 24.2292 24.1283 24.2292C23.6891 24.2292 23.333 24.5981 23.333 25.0531C23.333 25.5081 23.6891 25.8769 24.1283 25.8769Z" fill="#FF5758"/>
<path d="M2.63156 11.1621L2.13613 11.9392C2.12705 11.9532 2.12104 11.9691 2.11853 11.9858C2.11601 12.0024 2.11705 12.0195 2.12157 12.0357L2.91931 14.9656L2.12836 17.8875C2.12387 17.9037 2.1228 17.9207 2.12523 17.9374C2.12766 17.954 2.13353 17.9699 2.14244 17.984L2.63399 18.7541C2.6487 18.7775 2.67169 18.7939 2.698 18.8C2.72432 18.806 2.75186 18.801 2.77471 18.7862L7.8402 15.5371C7.85531 15.5269 7.86769 15.5129 7.87617 15.4963C7.88465 15.4798 7.88897 15.4613 7.88872 15.4426V14.4755C7.88866 14.4565 7.88395 14.4379 7.87504 14.4213C7.86613 14.4046 7.85331 14.3906 7.83777 14.3805L2.77229 11.1304C2.74946 11.1157 2.722 11.1108 2.69573 11.1167C2.66945 11.1226 2.64644 11.1389 2.63156 11.1621ZM6.63096 14.9707L3.50452 16.9978C3.50209 16.9994 3.49927 17.0001 3.49642 17C3.49357 16.9998 3.49083 16.9988 3.48857 16.997C3.48631 16.9952 3.48463 16.9927 3.48375 16.9899C3.48287 16.9871 3.48284 16.9841 3.48366 16.9812L3.97376 15.1717C4.01209 15.0309 4.01209 14.8818 3.97376 14.7409L3.48317 12.9385C3.48235 12.9356 3.48238 12.9326 3.48326 12.9298C3.48414 12.927 3.48582 12.9245 3.48809 12.9227C3.49035 12.9209 3.49309 12.9199 3.49593 12.9197C3.49878 12.9196 3.50161 12.9203 3.50404 12.9219L6.63096 14.9475C6.63267 14.9489 6.63406 14.9506 6.63501 14.9526C6.63597 14.9547 6.63646 14.9569 6.63646 14.9591C6.63646 14.9613 6.63597 14.9635 6.63501 14.9655C6.63406 14.9675 6.63267 14.9693 6.63096 14.9707Z" fill="#FFC531"/>
<path d="M0.795318 15.7817C1.23456 15.7817 1.59064 15.4129 1.59064 14.9579C1.59064 14.5029 1.23456 14.134 0.795318 14.134C0.356076 14.134 0 14.5029 0 14.9579C0 15.4129 0.356076 15.7817 0.795318 15.7817Z" fill="#FFC531"/>
<path d="M26.1882 11.2147L21.1188 14.4649C21.1038 14.4752 21.0914 14.4894 21.0829 14.506C21.0745 14.5226 21.0701 14.5411 21.0703 14.5599V15.5269C21.0701 15.5457 21.0744 15.5641 21.0829 15.5806C21.0914 15.5972 21.1037 15.6112 21.1188 15.6214L26.1858 18.8706C26.2087 18.8852 26.2362 18.8901 26.2624 18.8841C26.2887 18.8781 26.3117 18.8617 26.3265 18.8384L26.8176 18.0683C26.8266 18.0543 26.8327 18.0384 26.8352 18.0217C26.8377 18.0051 26.8366 17.988 26.8321 17.9718L26.0412 15.0499L26.8389 12.12C26.8433 12.1038 26.8443 12.0868 26.8418 12.0701C26.8393 12.0534 26.8333 12.0375 26.8244 12.0235L26.3284 11.2454C26.3134 11.2225 26.2904 11.2065 26.2643 11.2008C26.2381 11.1951 26.2109 11.2001 26.1882 11.2147ZM22.3295 15.0298L25.455 13.0047C25.4574 13.0029 25.4603 13.002 25.4633 13.0021C25.4662 13.0021 25.4691 13.0032 25.4714 13.005C25.4738 13.0068 25.4755 13.0094 25.4764 13.0123C25.4773 13.0152 25.4773 13.0183 25.4763 13.0212L24.9858 14.8237C24.9474 14.9646 24.9474 15.1137 24.9858 15.2545L25.4759 17.064C25.4767 17.0669 25.4766 17.0699 25.4758 17.0727C25.4749 17.0755 25.4732 17.078 25.4709 17.0798C25.4687 17.0816 25.4659 17.0826 25.4631 17.0828C25.4603 17.0829 25.4574 17.0822 25.455 17.0806L22.3286 15.0535C22.3269 15.052 22.3256 15.0501 22.3247 15.048C22.3238 15.0459 22.3234 15.0437 22.3235 15.0414C22.3236 15.0391 22.3242 15.0369 22.3253 15.0349C22.3263 15.0329 22.3278 15.0312 22.3295 15.0298Z" fill="#FFC531"/>
<path d="M28.1654 15.8662C28.6047 15.8662 28.9608 15.4973 28.9608 15.0423C28.9608 14.5874 28.6047 14.2185 28.1654 14.2185C27.7262 14.2185 27.3701 14.5874 27.3701 15.0423C27.3701 15.4973 27.7262 15.8662 28.1654 15.8662Z" fill="#FFC531"/>
<path d="M3.48238 20.9636L3.6624 21.8759C3.66558 21.8924 3.67217 21.908 3.68172 21.9216C3.69126 21.9353 3.70355 21.9466 3.71772 21.9548L6.28225 23.4422L7.71712 26.0881C7.72529 26.1026 7.73628 26.1152 7.7494 26.125C7.76251 26.1349 7.77746 26.1418 7.7933 26.1454L8.66675 26.3299C8.69309 26.3354 8.7205 26.3302 8.74315 26.3152C8.7658 26.3001 8.78191 26.2766 8.78806 26.2494L10.1531 20.2418C10.1573 20.2233 10.1569 20.204 10.1519 20.1857C10.1468 20.1674 10.1374 20.1507 10.1244 20.1372L9.99826 20.0066L9.59114 19.5853L9.46401 19.4536C9.45104 19.4403 9.43503 19.4306 9.41747 19.4254C9.3999 19.4203 9.38136 19.4198 9.36356 19.424L3.56002 20.8389C3.53404 20.8453 3.51145 20.8619 3.49698 20.8851C3.4825 20.9083 3.47727 20.9365 3.48238 20.9636ZM8.9084 20.7274L8.08348 24.4505C8.08279 24.4534 8.08127 24.456 8.07913 24.458C8.07698 24.46 8.07431 24.4613 8.07144 24.4618C8.06858 24.4622 8.06565 24.4618 8.06304 24.4605C8.06043 24.4592 8.05826 24.4571 8.05679 24.4545L7.16734 22.8144C7.09805 22.6867 6.99613 22.5813 6.87279 22.5097L5.29574 21.5949C5.29319 21.5935 5.29112 21.5913 5.28981 21.5886C5.28851 21.5859 5.28804 21.5829 5.28847 21.5799C5.28889 21.577 5.29019 21.5742 5.29219 21.572C5.29418 21.5699 5.29678 21.5684 5.29962 21.5678L8.89287 20.7093C8.89513 20.7091 8.89741 20.7094 8.89952 20.7103C8.90163 20.7111 8.90352 20.7125 8.90503 20.7143C8.90654 20.716 8.90763 20.7181 8.90821 20.7204C8.9088 20.7227 8.90886 20.7251 8.9084 20.7274Z" fill="#7BBE69"/>
<path d="M4.77383 25.8179C5.21308 25.8179 5.56915 25.449 5.56915 24.994C5.56915 24.539 5.21308 24.1702 4.77383 24.1702C4.33459 24.1702 3.97852 24.539 3.97852 24.994C3.97852 25.449 4.33459 25.8179 4.77383 25.8179Z" fill="#7BBE69"/>
<path d="M20.1753 3.74836L18.8074 9.76002C18.8033 9.77846 18.8038 9.79767 18.8088 9.81586C18.8138 9.83406 18.8232 9.85064 18.8361 9.86407L18.9632 9.99577L19.3698 10.4175L19.496 10.5482C19.509 10.5616 19.5251 10.5714 19.5427 10.5766C19.5604 10.5818 19.5791 10.5822 19.5969 10.5778L25.3976 9.16388C25.4237 9.1574 25.4463 9.14069 25.4608 9.11726C25.4753 9.09383 25.4805 9.0655 25.4752 9.03822L25.2971 8.13346C25.2938 8.11699 25.2872 8.10144 25.2776 8.08784C25.2681 8.07423 25.2559 8.06288 25.2418 8.05454L22.6894 6.56821L21.2536 3.91172C21.2456 3.89704 21.2347 3.88432 21.2215 3.87443C21.2084 3.86454 21.1933 3.85771 21.1774 3.85442L20.2967 3.66794C20.2703 3.66236 20.2429 3.66764 20.2203 3.68266C20.1976 3.69767 20.1815 3.72124 20.1753 3.74836ZM20.0511 9.27246L20.8799 5.55035C20.8805 5.54741 20.8819 5.54472 20.884 5.54265C20.8861 5.54058 20.8888 5.53923 20.8917 5.53879C20.8945 5.53835 20.8975 5.53884 20.9 5.54019C20.9026 5.54154 20.9048 5.54368 20.9061 5.54633L21.7893 7.17993C21.8584 7.3077 21.9601 7.41327 22.0833 7.48504L23.6667 8.40639C23.6692 8.40781 23.6713 8.41001 23.6726 8.41269C23.6739 8.41538 23.6744 8.41841 23.674 8.42138C23.6735 8.42435 23.6722 8.42711 23.6702 8.42929C23.6682 8.43146 23.6656 8.43295 23.6628 8.43354L20.0686 9.28804C20.0664 9.28861 20.0641 9.28864 20.0619 9.2881C20.0597 9.28756 20.0577 9.28648 20.0559 9.28496C20.0542 9.28343 20.0529 9.28149 20.0521 9.27932C20.0512 9.27714 20.0509 9.27479 20.0511 9.27246Z" fill="#7BBE69"/>
<path d="M24.1869 5.83005C24.6262 5.83005 24.9822 5.4612 24.9822 5.00621C24.9822 4.55122 24.6262 4.18237 24.1869 4.18237C23.7477 4.18237 23.3916 4.55122 23.3916 5.00621C23.3916 5.4612 23.7477 5.83005 24.1869 5.83005Z" fill="#7BBE69"/>
<path d="M76.424 21.7354L73.9007 17.4427L72.3518 18.9602V21.3126C72.3518 21.8823 72.2062 22.3213 71.9151 22.6296C71.6239 22.9379 71.2909 23.0915 70.916 23.0905C70.4763 23.0905 70.1308 22.9387 69.8795 22.6351C69.6281 22.3315 69.5026 21.8835 69.5029 21.291V8.67457C69.5029 8.0171 69.6251 7.51663 69.8693 7.17316C70.1135 6.82968 70.4624 6.65811 70.916 6.65845C71.355 6.65845 71.7037 6.81393 71.9622 7.1249C72.2206 7.43588 72.35 7.89479 72.3504 8.50166V15.6754L75.5632 12.1851C75.9611 11.7518 76.2645 11.4555 76.4735 11.2964C76.6964 11.1328 76.9647 11.049 77.2377 11.0576C77.5936 11.0576 77.8901 11.1749 78.1272 11.4095C78.2433 11.5225 78.3349 11.6596 78.3962 11.8119C78.4575 11.9642 78.4871 12.1282 78.4829 12.2931C78.4829 12.7264 78.0958 13.3045 77.3217 14.0273L75.8038 15.4694L78.7357 20.2395C78.9521 20.5933 79.1072 20.8626 79.201 21.0472C79.2893 21.2077 79.338 21.3883 79.3427 21.573C79.3427 22.0421 79.219 22.4124 78.9715 22.6839C78.7241 22.9553 78.3978 23.0908 77.9928 23.0905C77.6434 23.0905 77.3756 22.993 77.1868 22.798C76.998 22.6029 76.7462 22.2486 76.424 21.7354Z" fill="#EEF3FF"/>
<path d="M54.723 20.9571L52.7078 17.9844C52.6479 17.8964 52.5807 17.814 52.5069 17.7381C52.5156 17.6024 52.5258 17.4672 52.5258 17.329C52.5258 14.0869 50.1772 11.448 47.291 11.448C44.4047 11.448 42.0566 14.0859 42.0566 17.329C42.0566 20.572 44.4047 23.2079 47.291 23.2079C49.0088 23.2079 50.531 22.27 51.4859 20.8304L52.6122 22.4891C53.0921 23.1979 53.9539 23.4281 54.5372 23.0044C55.1204 22.5806 55.2029 21.6653 54.723 20.9571ZM47.291 20.9284C45.6183 20.9284 44.2582 19.3139 44.2582 17.329C44.2582 15.344 45.6169 13.7295 47.291 13.7295C48.9651 13.7295 50.3243 15.3445 50.3243 17.329C50.3243 19.3134 48.9636 20.9284 47.291 20.9284Z" fill="#EEF3FF"/>
<path d="M67.0048 19.3507C67.0048 20.1677 66.8128 20.867 66.4288 21.4488C66.0448 22.0305 65.4778 22.4713 64.728 22.7712C63.9784 23.0708 63.0663 23.2216 61.9917 23.2236C60.9662 23.2236 60.0873 23.0609 59.3549 22.7355C58.6225 22.4102 58.0816 22.0037 57.7322 21.5161C57.3838 21.0286 57.2094 20.539 57.2091 20.0474C57.2069 19.8919 57.2354 19.7376 57.293 19.594C57.3506 19.4504 57.436 19.3206 57.5439 19.2125C57.7671 18.9813 58.0497 18.8657 58.3916 18.8657C58.6915 18.8657 58.9219 18.9416 59.0826 19.0934C59.268 19.2798 59.4234 19.4956 59.5431 19.7327C59.8362 20.2605 60.1866 20.6544 60.5942 20.9145C61.0018 21.1745 61.5584 21.3045 62.2639 21.3045C62.8359 21.3045 63.3049 21.1727 63.6711 20.9089C64.0373 20.6452 64.2206 20.3436 64.2209 20.0042C64.2209 19.4838 64.0307 19.1044 63.6503 18.8662C63.2698 18.6279 62.6437 18.3997 61.7719 18.1816C60.7884 17.9289 59.9879 17.6633 59.3704 17.3849C58.7528 17.1064 58.2592 16.7396 57.8894 16.2846C57.5206 15.8282 57.3362 15.2676 57.3362 14.6027C57.3362 14.0106 57.5074 13.4505 57.8496 12.9224C58.1919 12.3943 58.6959 11.9734 59.3617 11.6597C60.0281 11.3451 60.8321 11.1879 61.7738 11.1882C62.5133 11.1882 63.1779 11.2677 63.7677 11.4265C64.3574 11.5853 64.8493 11.7986 65.2433 12.0664C65.6373 12.3344 65.9372 12.6307 66.143 12.955C66.3487 13.2794 66.4516 13.5978 66.4516 13.9101C66.4516 14.2499 66.3424 14.5278 66.1221 14.745C65.9018 14.9621 65.5883 15.0702 65.1856 15.0702C64.9143 15.0778 64.6492 14.9855 64.4373 14.8098C64.2316 14.6366 63.9961 14.3764 63.7308 14.0292C63.5229 13.748 63.2633 13.5122 62.967 13.3355C62.6739 13.162 62.2762 13.0752 61.7738 13.0752C61.2562 13.0752 60.8273 13.1891 60.4869 13.417C60.1466 13.6448 59.9757 13.9285 59.974 14.268C59.974 14.5786 60.0996 14.8333 60.3506 15.032C60.6016 15.2307 60.9402 15.3952 61.3662 15.5256C61.7913 15.6553 62.3771 15.8141 63.1238 16.0021C64.0098 16.2263 64.7338 16.4943 65.2957 16.8063C65.8576 17.1183 66.283 17.4851 66.5719 17.9066C66.8603 18.3283 67.0118 18.834 67.0048 19.3507Z" fill="#EEF3FF"/>
<path d="M98.3771 9.30041H94.9148V21.0875C94.9148 21.7661 94.7693 22.2695 94.4781 22.5979C94.187 22.9263 93.8095 23.0905 93.3456 23.0905C92.8758 23.0905 92.4931 22.9245 92.1975 22.5924C91.9018 22.2603 91.754 21.7587 91.754 21.0875V9.30041H88.2922C87.7507 9.30041 87.3481 9.17675 87.0844 8.92945C86.8208 8.68215 86.6891 8.3556 86.6895 7.94979C86.6895 7.52958 86.8266 7.19766 87.1009 6.95405C87.3753 6.71043 87.7724 6.58862 88.2922 6.58862H98.3785C98.9262 6.58862 99.334 6.71412 99.6018 6.96511C99.8697 7.2161 100.003 7.54432 100.002 7.94979C100.002 8.35593 99.8668 8.68248 99.596 8.92945C99.3252 9.17642 98.9189 9.30007 98.3771 9.30041Z" fill="#EEF3FF"/>
<path d="M41.4498 9.30041H37.9876V21.0875C37.9876 21.7661 37.842 22.2695 37.5509 22.5979C37.2597 22.9263 36.8822 23.0905 36.4183 23.0905C35.9483 23.0905 35.5654 22.9245 35.2697 22.5924C34.9741 22.2603 34.8262 21.7587 34.8262 21.0875V9.30041H31.364C30.8221 9.30041 30.4194 9.17675 30.1557 8.92945C29.8921 8.68215 29.7604 8.3556 29.7607 7.94979C29.7607 7.52958 29.8979 7.19766 30.1722 6.95405C30.4466 6.71043 30.8438 6.58862 31.364 6.58862H41.4498C41.9998 6.58862 42.4076 6.71412 42.6731 6.96511C42.9387 7.2161 43.0723 7.54432 43.0739 7.94979C43.0739 8.35593 42.9386 8.68248 42.6678 8.92945C42.397 9.17642 41.991 9.30007 41.4498 9.30041Z" fill="#EEF3FF"/>
<path d="M83.3934 9.58655C83.0235 9.59522 82.664 9.45878 82.387 9.20454C82.1082 8.94953 81.9687 8.5893 81.9687 8.12385C81.9687 7.70162 82.1116 7.35396 82.3972 7.08085C82.6651 6.81504 83.0225 6.66806 83.3934 6.6712C83.7498 6.66807 84.0949 6.8 84.3639 7.04215C84.6457 7.28979 84.7867 7.65019 84.787 8.12335C84.787 8.58176 84.6494 8.94015 84.3741 9.19851C84.1075 9.4536 83.7563 9.59256 83.3934 9.58655ZM84.787 12.6653V21.2786C84.787 21.8751 84.6528 22.3263 84.3843 22.6323C84.2565 22.7811 84.0988 22.8993 83.9223 22.9785C83.7457 23.0577 83.5547 23.096 83.3624 23.0907C82.9496 23.0907 82.6141 22.9342 82.356 22.6212C82.0978 22.3082 81.9684 21.8607 81.9678 21.2786V12.7532C81.9678 12.1635 82.0972 11.7195 82.356 11.4212C82.6148 11.123 82.9502 10.9737 83.3624 10.9734C83.7751 10.9734 84.1158 11.1226 84.3843 11.4212C84.6528 11.7198 84.7877 12.1343 84.789 12.6648L84.787 12.6653Z" fill="#EEF3FF"/>
</g>
<defs>
<clipPath id="clip0">
<rect width="100" height="30" fill="white"/>
</clipPath>
</defs>
</svg>
