<svg width="32" height="32" viewBox="0 0 32 32" fill="none" xmlns="http://www.w3.org/2000/svg">
<g clip-path="url(#clip0)">
<path d="M8.24988 10.4349L6.08488 10.8949L6.07488 18.0149C6.07488 19.3299 7.06488 20.1799 8.37988 20.1799C9.10988 20.1799 9.64488 20.0449 9.93988 19.8849V18.1949C9.65488 18.3099 8.25488 18.7199 8.25488 17.4099V14.2499H9.93988V12.3599H8.25488L8.24988 10.4349ZM12.7049 13.0149L12.5699 12.3599H10.6499V20.0199H12.8649V14.8649C13.3899 14.1749 14.2749 14.3099 14.5599 14.3999V12.3599C14.2599 12.2549 13.2249 12.0599 12.7049 13.0149ZM17.3199 9.3999L15.0899 9.8749V11.6849L17.3199 11.2099V9.3999ZM2.24488 14.6149C2.24488 14.2699 2.53488 14.1349 2.99988 14.1299C3.67488 14.1299 4.53488 14.3349 5.20988 14.6999V12.6099C4.50735 12.3358 3.75896 12.1984 3.00488 12.2049C1.20488 12.2049 0.00488281 13.1449 0.00488281 14.7149C0.00488281 17.1749 3.37988 16.7749 3.37988 17.8349C3.37988 18.2449 3.02488 18.3799 2.52988 18.3799C1.79488 18.3799 0.844883 18.0749 0.0998828 17.6699V19.6699C0.924883 20.0249 1.75988 20.1749 2.52488 20.1749C4.36988 20.1749 5.63988 19.3849 5.63988 17.7849C5.63988 15.1399 2.24488 15.6149 2.24488 14.6149ZM31.9999 16.2799C31.9999 14.0049 30.8999 12.2099 28.7899 12.2099C26.6799 12.2099 25.3949 14.0049 25.3949 16.2649C25.3949 18.9399 26.9099 20.1749 29.0699 20.1749C30.1299 20.1749 30.9249 19.9349 31.5299 19.5999V17.9299C30.9249 18.2349 30.2299 18.4199 29.3499 18.4199C28.4849 18.4199 27.7249 18.1149 27.6249 17.0749H31.9699C31.9799 16.9599 31.9999 16.4949 31.9999 16.2799ZM27.6049 15.4399C27.6049 14.4399 28.2199 14.0199 28.7749 14.0199C29.3199 14.0199 29.8999 14.4399 29.8999 15.4399H27.6049ZM21.9599 12.2099C21.0899 12.2099 20.5299 12.6199 20.2199 12.9049L20.1049 12.3549H18.1499V22.5949L20.3699 22.1249L20.3749 19.6149C20.6949 19.8499 21.1699 20.1749 21.9449 20.1749C23.5349 20.1749 24.9849 19.0149 24.9849 16.1949C24.9899 13.6149 23.5199 12.2099 21.9599 12.2099ZM21.4299 18.3349C20.9099 18.3349 20.5999 18.1449 20.3849 17.9149L20.3699 14.6149C20.5999 14.3599 20.9199 14.1749 21.4299 14.1749C22.2399 14.1749 22.7999 15.0849 22.7999 16.2449C22.8049 17.4399 22.2549 18.3349 21.4299 18.3349ZM15.0949 20.0199H17.3249V12.3599H15.0949V20.0199Z" fill="black"/>
</g>
<defs>
<clipPath id="clip0">
<rect width="32" height="32" fill="white"/>
</clipPath>
</defs>
</svg>
