<svg width="400" height="320" viewBox="0 0 400 320" fill="none" xmlns="http://www.w3.org/2000/svg">
<path d="M200 315.88C286.09 315.88 355.88 246.09 355.88 160C355.88 73.9099 286.09 4.12 200 4.12C113.91 4.12 44.12 73.9099 44.12 160C44.12 246.09 113.91 315.88 200 315.88Z" fill="#FFFCEC"/>
<path d="M127.58 123.79H163.79V87.58H127.58V123.79ZM181.9 232.42H218.1V196.21H181.9V232.42ZM127.58 232.42H163.79V196.21H127.58V232.42ZM127.58 178.1H163.79V141.9H127.58V178.1ZM181.9 178.1H218.1V141.9H181.9V178.1ZM236.21 87.58V123.79H272.42V87.58H236.21ZM181.9 123.79H218.1V87.58H181.9V123.79ZM236.21 178.1H272.42V141.9H236.21V178.1ZM236.21 232.42H272.42V196.21H236.21V232.42Z" fill="#FEDB5A"/>
</svg>
