<svg width="16" height="16" viewBox="0 0 16 16" fill="none" xmlns="http://www.w3.org/2000/svg">
<circle cx="8" cy="8" r="8" fill="#696871"/>
<g clip-path="url(#clip0)">
<path d="M8.40789 8.00067L11.6077 4.8008C11.7204 4.68814 11.7204 4.50549 11.6077 4.39284C11.4951 4.2802 11.3124 4.28018 11.1998 4.39284L7.99992 7.59271L4.80007 4.39284C4.68741 4.28018 4.50476 4.28018 4.39211 4.39284C4.27947 4.5055 4.27945 4.68816 4.39211 4.8008L7.59197 8.00065L4.39211 11.2005C4.27945 11.3132 4.27945 11.4958 4.39211 11.6085C4.44843 11.6648 4.52226 11.693 4.5961 11.693C4.66993 11.693 4.74375 11.6648 4.80008 11.6085L7.99992 8.40862L11.1998 11.6085C11.2561 11.6648 11.3299 11.693 11.4038 11.693C11.4776 11.693 11.5514 11.6648 11.6077 11.6085C11.7204 11.4958 11.7204 11.3132 11.6077 11.2005L8.40789 8.00067Z" fill="white"/>
</g>
<defs>
<clipPath id="clip0">
<rect width="7.38462" height="7.38462" fill="white" transform="translate(4.30762 4.30762)"/>
</clipPath>
</defs>
</svg>
