<svg id="Layer_1" data-name="Layer 1" xmlns="http://www.w3.org/2000/svg" viewBox="0 0 400 320"><defs><style>.cls-1{fill:#7bbe6a;}.cls-2{fill:#fff;}</style></defs><rect id="Rectangle_171" data-name="Rectangle 171" class="cls-1" width="400" height="320"/><g id="Group_5" data-name="Group 5"><g id="Group_4" data-name="Group 4"><path id="Path_428" data-name="Path 428" class="cls-2" d="M141.87,117.41h16.32v20.78h81.57V117.41h16.31v34.64h16.31V117.41c0-7.62-7.34-13.86-16.31-13.86H222c-3.43-8-12.4-13.85-23-13.85s-19.57,5.81-23,13.85h-34.1c-9,0-16.31,6.24-16.31,13.86v97c0,7.62,7.34,13.85,16.31,13.85h40.79V214.4H141.87ZM199,103.55c4.49,0,8.16,3.11,8.16,6.92s-3.67,6.93-8.16,6.93-8.16-3.11-8.16-6.92S194.49,103.55,199,103.55Z"/><path id="Path_429" data-name="Path 429" class="cls-2" d="M251.65,198.69c3.38-5.39,5.91-11.56,5.91-18.5,0-19.28-16.88-34.7-38-34.7s-38,15.42-38,34.7,16.88,34.69,38,34.69a43.54,43.54,0,0,0,20.26-5.39l22.78,20.81,11.82-10.79Zm-32.07.77c-11.81,0-21.1-8.48-21.1-19.27s9.29-19.28,21.1-19.28,21.1,8.48,21.1,19.28S231.4,199.46,219.58,199.46Z"/></g></g></svg>