<svg id="Layer_1" data-name="Layer 1" xmlns="http://www.w3.org/2000/svg" viewBox="0 0 400 320"><defs><style>.cls-1{fill:#fec531;}.cls-2{fill:none;}.cls-3{fill:#fff;}</style></defs><rect id="Rectangle_172" data-name="Rectangle 172" class="cls-1" width="400" height="320"/><g id="payments_black_24dp" data-name="payments black 24dp"><rect id="Rectangle_178" data-name="Rectangle 178" class="cls-2" x="114" y="92.5" width="172" height="135"/><path id="Path_436" data-name="Path 436" class="cls-3" d="M254,175.66V112.33A15.69,15.69,0,0,0,238.58,96.5H130.45A15.69,15.69,0,0,0,115,112.33v63.33a15.68,15.68,0,0,0,15.45,15.83H238.58A15.68,15.68,0,0,0,254,175.66Zm-15.45,0H130.45V112.33H238.58Zm-54.07-55.41c-12.82,0-23.17,10.61-23.17,23.75s10.35,23.74,23.17,23.74A23.43,23.43,0,0,0,207.69,144C207.69,130.86,197.34,120.25,184.51,120.25Zm100.42,0v87.08a15.7,15.7,0,0,1-15.45,15.83H138.17V207.33H269.48V120.25Z"/></g></svg>